# This file uses centimeters as units for non-parametric coordinates.

mtllib Woman1LeftLeg.mtl
g default
v 0.979515 -4.800356 -0.139833
v 0.915239 -4.800356 -0.265978
v 0.815130 -4.800356 -0.366088
v 0.688985 -4.800356 -0.430362
v 0.549151 -4.800356 -0.452510
v 0.409319 -4.800356 -0.430362
v 0.283173 -4.800356 -0.366088
v 0.183064 -4.800356 -0.265978
v 0.118789 -4.800356 -0.139833
v 0.096642 -4.800356 0.000000
v 0.118789 -4.800356 0.139833
v 0.183064 -4.800356 0.265978
v 0.283173 -4.800356 0.366088
v 0.409319 -4.800356 0.430362
v 0.549151 -4.800356 0.452509
v 0.688985 -4.800356 0.430362
v 0.815130 -4.800356 0.366088
v 0.915239 -4.800356 0.265978
v 0.979514 -4.800356 0.139833
v 1.001661 -4.800356 0.000000
v 0.979515 0.482146 -0.139833
v 0.915239 0.482146 -0.265978
v 0.815130 0.482146 -0.366088
v 0.688985 0.482146 -0.430362
v 0.549151 0.482146 -0.452510
v 0.409319 0.482146 -0.430362
v 0.283173 0.482146 -0.366088
v 0.183064 0.482146 -0.265978
v 0.118789 0.482146 -0.139833
v 0.096642 0.482146 0.000000
v 0.118789 0.482146 0.139833
v 0.183064 0.482146 0.265978
v 0.283173 0.482146 0.366088
v 0.409319 0.482146 0.430362
v 0.549151 0.482146 0.452509
v 0.688985 0.482146 0.430362
v 0.815130 0.482146 0.366088
v 0.915239 0.482146 0.265978
v 0.979514 0.482146 0.139833
v 1.001661 0.482146 0.000000
v 0.549151 -4.800356 0.000000
v 0.549151 0.482146 0.000000
v 0.549151 -2.292061 -0.452510
v 0.688985 -2.292061 -0.430362
v 0.815130 -2.292061 -0.366088
v 0.915239 -2.292061 -0.265978
v 0.979515 -2.292061 -0.139833
v 1.001661 -2.292061 0.000000
v 0.979514 -2.292061 0.139833
v 0.915239 -2.292061 0.265978
v 0.815130 -2.292061 0.366088
v 0.688985 -2.292061 0.430362
v 0.549151 -2.292061 0.452509
v 0.409319 -2.292061 0.430362
v 0.283173 -2.292061 0.366088
v 0.183064 -2.292061 0.265978
v 0.118789 -2.292061 0.139833
v 0.096642 -2.292061 0.000000
v 0.118789 -2.292061 -0.139833
v 0.183064 -2.292061 -0.265978
v 0.283173 -2.292061 -0.366088
v 0.409319 -2.292061 -0.430362
vt 0.323066 0.605787
vt 0.326352 0.605787
vt 0.326352 0.651543
vt 0.323066 0.651543
vt 0.329638 0.605787
vt 0.329638 0.651543
vt 0.332924 0.605787
vt 0.332924 0.651543
vt 0.336209 0.605787
vt 0.336209 0.651543
vt 0.339495 0.605787
vt 0.339495 0.651543
vt 0.342781 0.605787
vt 0.342781 0.651543
vt 0.346067 0.605787
vt 0.346067 0.651543
vt 0.349353 0.605787
vt 0.349353 0.651543
vt 0.352639 0.605787
vt 0.352639 0.651543
vt 0.355925 0.605787
vt 0.355925 0.651543
vt 0.359211 0.605787
vt 0.359211 0.651543
vt 0.362497 0.605787
vt 0.362497 0.651543
vt 0.365783 0.605787
vt 0.365783 0.651543
vt 0.369069 0.605787
vt 0.369069 0.651543
vt 0.372355 0.605787
vt 0.372355 0.651543
vt 0.375641 0.605787
vt 0.375641 0.651543
vt 0.378927 0.605787
vt 0.378927 0.651543
vt 0.382213 0.605787
vt 0.382213 0.651543
vt 0.385499 0.605787
vt 0.385499 0.651543
vt 0.388784 0.605787
vt 0.388784 0.651543
vt 0.379811 0.617006
vt 0.383783 0.624801
vt 0.357190 0.632323
vt 0.373626 0.610820
vt 0.365831 0.606848
vt 0.357190 0.605480
vt 0.348549 0.606848
vt 0.340755 0.610820
vt 0.334569 0.617006
vt 0.330597 0.624801
vt 0.329229 0.633441
vt 0.330597 0.642082
vt 0.334569 0.649877
vt 0.340755 0.656063
vt 0.348549 0.660034
vt 0.357190 0.661403
vt 0.365831 0.660034
vt 0.373625 0.656063
vt 0.379811 0.649877
vt 0.383783 0.642082
vt 0.385152 0.633441
vt 0.724989 0.903567
vt 0.721017 0.911361
vt 0.698396 0.893808
vt 0.714831 0.917547
vt 0.707036 0.921519
vt 0.698396 0.922887
vt 0.689755 0.921519
vt 0.681960 0.917547
vt 0.675774 0.911361
vt 0.671803 0.903567
vt 0.670434 0.894926
vt 0.671803 0.886285
vt 0.675774 0.878491
vt 0.681960 0.872305
vt 0.689755 0.868333
vt 0.698396 0.866964
vt 0.707036 0.868333
vt 0.714831 0.872305
vt 0.721017 0.878490
vt 0.724989 0.886285
vt 0.726357 0.894926
vt 0.675217 0.869784
vt 0.677932 0.869784
vt 0.677932 0.913630
vt 0.675217 0.913630
vt 0.672502 0.869784
vt 0.672502 0.913630
vt 0.669788 0.869784
vt 0.669788 0.913630
vt 0.667073 0.869784
vt 0.667073 0.913630
vt 0.718656 0.869784
vt 0.721371 0.869784
vt 0.721371 0.913630
vt 0.718656 0.913630
vt 0.715941 0.869784
vt 0.715941 0.913630
vt 0.713226 0.869784
vt 0.713226 0.913630
vt 0.710511 0.869784
vt 0.710511 0.913630
vt 0.707796 0.869784
vt 0.707796 0.913630
vt 0.705081 0.869784
vt 0.705081 0.913630
vt 0.702366 0.869784
vt 0.702366 0.913630
vt 0.699651 0.869784
vt 0.699651 0.913630
vt 0.696936 0.869784
vt 0.696936 0.913630
vt 0.694222 0.869784
vt 0.694222 0.913630
vt 0.691507 0.869784
vt 0.691507 0.913630
vt 0.688792 0.869784
vt 0.688792 0.913630
vt 0.686077 0.869784
vt 0.686077 0.913630
vt 0.683362 0.869784
vt 0.683362 0.913630
vt 0.680647 0.869784
vt 0.680647 0.913630
vn 0.951057 0.000000 -0.309016
vn 0.809017 0.000000 -0.587785
vn 0.891001 0.000000 -0.454001
vn 0.891001 0.000000 -0.454001
vn 0.809017 0.000000 -0.587785
vn 0.587785 0.000000 -0.809017
vn 0.707110 0.000000 -0.707103
vn 0.707110 0.000000 -0.707103
vn 0.587785 0.000000 -0.809017
vn 0.309017 0.000000 -0.951057
vn 0.453990 0.000000 -0.891007
vn 0.453990 0.000000 -0.891007
vn 0.309017 0.000000 -0.951057
vn 0.000000 0.000000 -1.000000
vn 0.156438 0.000000 -0.987688
vn 0.156438 0.000000 -0.987688
vn 0.000000 0.000000 -1.000000
vn -0.309017 0.000000 -0.951056
vn -0.156440 0.000000 -0.987688
vn -0.156440 0.000000 -0.987688
vn -0.309017 0.000000 -0.951056
vn -0.587785 0.000000 -0.809017
vn -0.453987 0.000000 -0.891008
vn -0.453987 0.000000 -0.891008
vn -0.587785 0.000000 -0.809017
vn -0.809017 0.000000 -0.587785
vn -0.707110 0.000000 -0.707103
vn -0.707110 0.000000 -0.707103
vn -0.809017 0.000000 -0.587785
vn -0.951057 0.000000 -0.309017
vn -0.891004 0.000000 -0.453996
vn -0.891004 0.000000 -0.453996
vn -0.951057 0.000000 -0.309017
vn -1.000000 0.000000 0.000000
vn -0.987689 0.000000 -0.156432
vn -0.987689 0.000000 -0.156432
vn -1.000000 0.000000 0.000000
vn -0.951056 0.000000 0.309017
vn -0.987689 0.000000 0.156432
vn -0.987689 0.000000 0.156432
vn -0.951056 0.000000 0.309017
vn -0.809017 0.000000 0.587785
vn -0.891004 0.000000 0.453996
vn -0.891004 0.000000 0.453996
vn -0.809017 0.000000 0.587785
vn -0.587785 0.000000 0.809017
vn -0.707110 0.000000 0.707103
vn -0.707110 0.000000 0.707103
vn -0.587785 0.000000 0.809017
vn -0.309017 0.000000 0.951057
vn -0.453987 0.000000 0.891008
vn -0.453987 0.000000 0.891008
vn -0.309017 0.000000 0.951057
vn 0.000000 0.000000 1.000000
vn -0.156433 0.000000 0.987689
vn -0.156433 0.000000 0.987689
vn 0.000000 0.000000 1.000000
vn 0.309017 0.000000 0.951056
vn 0.156431 0.000000 0.987689
vn 0.156431 0.000000 0.987689
vn 0.309017 0.000000 0.951056
vn 0.587785 0.000000 0.809017
vn 0.453990 0.000000 0.891007
vn 0.453990 0.000000 0.891007
vn 0.587785 0.000000 0.809017
vn 0.809017 0.000000 0.587785
vn 0.707110 0.000000 0.707103
vn 0.707110 0.000000 0.707103
vn 0.809017 0.000000 0.587785
vn 0.951057 0.000000 0.309017
vn 0.891004 0.000000 0.453995
vn 0.891004 0.000000 0.453995
vn 0.951057 0.000000 0.309017
vn 1.000000 0.000000 0.000001
vn 0.987689 0.000000 0.156432
vn 0.987689 0.000000 0.156432
vn 1.000000 0.000000 0.000001
vn 0.951057 0.000000 -0.309016
vn 0.987690 0.000000 -0.156425
vn 0.987690 0.000000 -0.156425
vn 0.000000 -1.000000 0.000000
vn 0.000000 -1.000000 0.000000
vn 0.000000 -1.000000 0.000000
vn 0.000000 -1.000000 0.000000
vn 0.000000 -1.000000 0.000000
vn 0.000000 -1.000000 0.000000
vn 0.000000 -1.000000 0.000000
vn 0.000000 -1.000000 0.000000
vn 0.000000 -1.000000 0.000000
vn 0.000000 -1.000000 0.000000
vn 0.000000 -1.000000 0.000000
vn 0.000000 -1.000000 0.000000
vn 0.000000 -1.000000 0.000000
vn 0.000000 -1.000000 0.000000
vn 0.000000 -1.000000 0.000000
vn 0.000000 -1.000000 0.000000
vn 0.000000 -1.000000 0.000000
vn 0.000000 -1.000000 0.000000
vn 0.000000 -1.000000 0.000000
vn 0.000000 -1.000000 0.000000
vn 0.000000 -1.000000 0.000000
vn 0.000000 -1.000000 0.000000
vn 0.000000 -1.000000 0.000000
vn 0.000000 -1.000000 0.000000
vn 0.000000 -1.000000 0.000000
vn 0.000000 -1.000000 0.000000
vn 0.000000 -1.000000 0.000000
vn 0.000000 -1.000000 0.000000
vn 0.000000 -1.000000 0.000000
vn 0.000000 -1.000000 0.000000
vn 0.000000 -1.000000 0.000000
vn 0.000000 -1.000000 0.000000
vn 0.000000 -1.000000 0.000000
vn 0.000000 -1.000000 0.000000
vn 0.000000 -1.000000 0.000000
vn 0.000000 -1.000000 0.000000
vn 0.000000 -1.000000 0.000000
vn 0.000000 -1.000000 0.000000
vn 0.000000 -1.000000 0.000000
vn 0.000000 -1.000000 0.000000
vn 0.000000 -1.000000 0.000000
vn 0.000000 -1.000000 0.000000
vn 0.000000 -1.000000 0.000000
vn 0.000000 -1.000000 0.000000
vn 0.000000 -1.000000 0.000000
vn 0.000000 -1.000000 0.000000
vn 0.000000 -1.000000 0.000000
vn 0.000000 -1.000000 0.000000
vn 0.000000 -1.000000 0.000000
vn 0.000000 -1.000000 0.000000
vn 0.000000 -1.000000 0.000000
vn 0.000000 -1.000000 0.000000
vn 0.000000 -1.000000 0.000000
vn 0.000000 -1.000000 0.000000
vn 0.000000 -1.000000 0.000000
vn 0.000000 -1.000000 0.000000
vn 0.000000 -1.000000 0.000000
vn 0.000000 -1.000000 0.000000
vn 0.000000 -1.000000 0.000000
vn 0.000000 -1.000000 0.000000
vn 0.000000 1.000000 0.000000
vn 0.000000 1.000000 0.000000
vn 0.000000 1.000000 0.000000
vn 0.000000 1.000000 0.000000
vn 0.000000 1.000000 0.000000
vn 0.000000 1.000000 0.000000
vn 0.000000 1.000000 0.000000
vn 0.000000 1.000000 0.000000
vn 0.000000 1.000000 0.000000
vn 0.000000 1.000000 0.000000
vn 0.000000 1.000000 0.000000
vn 0.000000 1.000000 0.000000
vn 0.000000 1.000000 0.000000
vn 0.000000 1.000000 0.000000
vn 0.000000 1.000000 0.000000
vn 0.000000 1.000000 0.000000
vn 0.000000 1.000000 0.000000
vn 0.000000 1.000000 0.000000
vn 0.000000 1.000000 0.000000
vn 0.000000 1.000000 0.000000
vn 0.000000 1.000000 0.000000
vn 0.000000 1.000000 0.000000
vn 0.000000 1.000000 0.000000
vn 0.000000 1.000000 0.000000
vn 0.000000 1.000000 0.000000
vn 0.000000 1.000000 0.000000
vn 0.000000 1.000000 0.000000
vn 0.000000 1.000000 0.000000
vn 0.000000 1.000000 0.000000
vn 0.000000 1.000000 0.000000
vn 0.000000 1.000000 0.000000
vn 0.000000 1.000000 0.000000
vn 0.000000 1.000000 0.000000
vn 0.000000 1.000000 0.000000
vn 0.000000 1.000000 0.000000
vn 0.000000 1.000000 0.000000
vn 0.000000 1.000000 0.000000
vn 0.000000 1.000000 0.000000
vn 0.000000 1.000000 0.000000
vn 0.000000 1.000000 0.000000
vn 0.000000 1.000000 0.000000
vn 0.000000 1.000000 0.000000
vn 0.000000 1.000000 0.000000
vn 0.000000 1.000000 0.000000
vn 0.000000 1.000000 0.000000
vn 0.000000 1.000000 0.000000
vn 0.000000 1.000000 0.000000
vn 0.000000 1.000000 0.000000
vn 0.000000 1.000000 0.000000
vn 0.000000 1.000000 0.000000
vn 0.000000 1.000000 0.000000
vn 0.000000 1.000000 0.000000
vn 0.000000 1.000000 0.000000
vn 0.000000 1.000000 0.000000
vn 0.000000 1.000000 0.000000
vn 0.000000 1.000000 0.000000
vn 0.000000 1.000000 0.000000
vn 0.000000 1.000000 0.000000
vn 0.000000 1.000000 0.000000
vn 0.000000 1.000000 0.000000
vn 0.156438 0.000000 -0.987688
vn 0.156438 0.000000 -0.987688
vn 0.000000 0.000000 -1.000000
vn 0.309017 0.000000 -0.951057
vn 0.453990 0.000000 -0.891007
vn 0.453990 0.000000 -0.891007
vn 0.309017 0.000000 -0.951057
vn 0.587785 0.000000 -0.809017
vn 0.707110 0.000000 -0.707103
vn 0.707110 0.000000 -0.707103
vn 0.587785 0.000000 -0.809017
vn 0.809017 0.000000 -0.587785
vn 0.891001 0.000000 -0.454001
vn 0.891001 0.000000 -0.454001
vn 0.809017 0.000000 -0.587785
vn 0.951057 0.000000 -0.309016
vn 0.987690 0.000000 -0.156425
vn 0.987690 0.000000 -0.156425
vn 0.951057 0.000000 -0.309016
vn 1.000000 0.000000 0.000001
vn 0.987689 0.000000 0.156432
vn 0.987689 0.000000 0.156432
vn 1.000000 0.000000 0.000001
vn 0.951057 0.000000 0.309017
vn 0.891004 0.000000 0.453995
vn 0.891004 0.000000 0.453995
vn 0.951057 0.000000 0.309017
vn 0.809017 0.000000 0.587785
vn 0.707110 0.000000 0.707103
vn 0.707110 0.000000 0.707103
vn 0.809017 0.000000 0.587785
vn 0.587785 0.000000 0.809017
vn 0.453990 0.000000 0.891007
vn 0.453990 0.000000 0.891007
vn 0.587785 0.000000 0.809017
vn 0.309017 0.000000 0.951056
vn 0.156431 0.000000 0.987689
vn 0.156431 0.000000 0.987689
vn 0.309017 0.000000 0.951056
vn 0.000000 0.000000 1.000000
vn -0.156433 0.000000 0.987689
vn -0.156433 0.000000 0.987689
vn 0.000000 0.000000 1.000000
vn -0.309017 0.000000 0.951057
vn -0.453987 0.000000 0.891008
vn -0.453987 0.000000 0.891008
vn -0.309017 0.000000 0.951057
vn -0.587785 0.000000 0.809017
vn -0.707110 0.000000 0.707103
vn -0.707110 0.000000 0.707103
vn -0.587785 0.000000 0.809017
vn -0.809017 0.000000 0.587785
vn -0.891004 0.000000 0.453996
vn -0.891004 0.000000 0.453996
vn -0.809017 0.000000 0.587785
vn -0.951056 0.000000 0.309017
vn -0.987689 0.000000 0.156432
vn -0.987689 0.000000 0.156432
vn -0.951056 0.000000 0.309017
vn -1.000000 0.000000 0.000000
vn -0.987689 0.000000 -0.156432
vn -0.987689 0.000000 -0.156432
vn -1.000000 0.000000 0.000000
vn -0.951057 0.000000 -0.309017
vn -0.891004 0.000000 -0.453996
vn -0.891004 0.000000 -0.453996
vn -0.951057 0.000000 -0.309017
vn -0.809017 0.000000 -0.587785
vn -0.707110 0.000000 -0.707103
vn -0.707110 0.000000 -0.707103
vn -0.809017 0.000000 -0.587785
vn -0.587785 0.000000 -0.809017
vn -0.453987 0.000000 -0.891008
vn -0.453987 0.000000 -0.891008
vn -0.587785 0.000000 -0.809017
vn -0.309017 0.000000 -0.951056
vn -0.156440 0.000000 -0.987688
vn -0.156440 0.000000 -0.987688
vn -0.309017 0.000000 -0.951056
vn 0.000000 0.000000 -1.000000
s off
g Woman1LeftLeg:Leftleg1
usemtl initialShadingGroup
f 1/1/1 2/2/2 46/3/3 47/4/4
f 2/2/5 3/5/6 45/6/7 46/3/8
f 3/5/9 4/7/10 44/8/11 45/6/12
f 4/7/13 5/9/14 43/10/15 44/8/16
f 5/9/17 6/11/18 62/12/19 43/10/20
f 6/11/21 7/13/22 61/14/23 62/12/24
f 7/13/25 8/15/26 60/16/27 61/14/28
f 8/15/29 9/17/30 59/18/31 60/16/32
f 9/17/33 10/19/34 58/20/35 59/18/36
f 10/19/37 11/21/38 57/22/39 58/20/40
f 11/21/41 12/23/42 56/24/43 57/22/44
f 12/23/45 13/25/46 55/26/47 56/24/48
f 13/25/49 14/27/50 54/28/51 55/26/52
f 14/27/53 15/29/54 53/30/55 54/28/56
f 15/29/57 16/31/58 52/32/59 53/30/60
f 16/31/61 17/33/62 51/34/63 52/32/64
f 17/33/65 18/35/66 50/36/67 51/34/68
f 18/35/69 19/37/70 49/38/71 50/36/72
f 19/37/73 20/39/74 48/40/75 49/38/76
f 20/39/77 1/41/78 47/42/79 48/40/80
f 2/43/81 1/44/82 41/45/83
f 3/46/84 2/43/85 41/45/86
f 4/47/87 3/46/88 41/45/89
f 5/48/90 4/47/91 41/45/92
f 6/49/93 5/48/94 41/45/95
f 7/50/96 6/49/97 41/45/98
f 8/51/99 7/50/100 41/45/101
f 9/52/102 8/51/103 41/45/104
f 10/53/105 9/52/106 41/45/107
f 11/54/108 10/53/109 41/45/110
f 12/55/111 11/54/112 41/45/113
f 13/56/114 12/55/115 41/45/116
f 14/57/117 13/56/118 41/45/119
f 15/58/120 14/57/121 41/45/122
f 16/59/123 15/58/124 41/45/125
f 17/60/126 16/59/127 41/45/128
f 18/61/129 17/60/130 41/45/131
f 19/62/132 18/61/133 41/45/134
f 20/63/135 19/62/136 41/45/137
f 1/44/138 20/63/139 41/45/140
f 21/64/141 22/65/142 42/66/143
f 22/65/144 23/67/145 42/66/146
f 23/67/147 24/68/148 42/66/149
f 24/68/150 25/69/151 42/66/152
f 25/69/153 26/70/154 42/66/155
f 26/70/156 27/71/157 42/66/158
f 27/71/159 28/72/160 42/66/161
f 28/72/162 29/73/163 42/66/164
f 29/73/165 30/74/166 42/66/167
f 30/74/168 31/75/169 42/66/170
f 31/75/171 32/76/172 42/66/173
f 32/76/174 33/77/175 42/66/176
f 33/77/177 34/78/178 42/66/179
f 34/78/180 35/79/181 42/66/182
f 35/79/183 36/80/184 42/66/185
f 36/80/186 37/81/187 42/66/188
f 37/81/189 38/82/190 42/66/191
f 38/82/192 39/83/193 42/66/194
f 39/83/195 40/84/196 42/66/197
f 40/84/198 21/64/199 42/66/200
f 44/85/201 43/86/202 25/87/203 24/88/204
f 45/89/205 44/85/206 24/88/207 23/90/208
f 46/91/209 45/89/210 23/90/211 22/92/212
f 47/93/213 46/91/214 22/92/215 21/94/216
f 48/95/217 47/96/218 21/97/219 40/98/220
f 49/99/221 48/95/222 40/98/223 39/100/224
f 50/101/225 49/99/226 39/100/227 38/102/228
f 51/103/229 50/101/230 38/102/231 37/104/232
f 52/105/233 51/103/234 37/104/235 36/106/236
f 53/107/237 52/105/238 36/106/239 35/108/240
f 54/109/241 53/107/242 35/108/243 34/110/244
f 55/111/245 54/109/246 34/110/247 33/112/248
f 56/113/249 55/111/250 33/112/251 32/114/252
f 57/115/253 56/113/254 32/114/255 31/116/256
f 58/117/257 57/115/258 31/116/259 30/118/260
f 59/119/261 58/117/262 30/118/263 29/120/264
f 60/121/265 59/119/266 29/120/267 28/122/268
f 61/123/269 60/121/270 28/122/271 27/124/272
f 62/125/273 61/123/274 27/124/275 26/126/276
f 43/86/277 62/125/278 26/126/279 25/87/280
