# This file uses centimeters as units for non-parametric coordinates.

mtllib Man2Body.mtl
g default
v 1.181242 4.408196 -0.382164
v 1.005581 4.408196 -0.726919
v 0.731982 4.408196 -1.000519
v 0.387227 4.408196 -1.176180
v 0.005063 4.408196 -1.236709
v -0.377101 4.408196 -1.176180
v -0.721857 4.408196 -1.000519
v -0.995456 4.408196 -0.726919
v -1.171117 4.408196 -0.382164
v -1.231647 4.408196 0.000000
v -1.171117 4.408196 0.382164
v -0.995455 4.408196 0.726919
v -0.721857 4.408196 1.000518
v -0.377101 4.408196 1.176180
v 0.005063 4.408196 1.236709
v 0.387227 4.408196 1.176180
v 0.731982 4.408196 1.000518
v 1.005580 4.408196 0.726919
v 1.181242 4.408196 0.382164
v 1.241771 4.408196 0.000000
v 1.181242 10.011055 -0.382164
v 1.005581 10.011055 -0.726919
v 0.731982 10.011055 -1.000519
v 0.387227 10.011055 -1.176180
v 0.005063 10.011055 -1.236709
v -0.377101 10.011055 -1.176180
v -0.721857 10.011055 -1.000519
v -0.995456 10.011055 -0.726919
v -1.171117 10.011055 -0.382164
v -1.231647 10.011055 0.000000
v -1.171117 10.011055 0.382164
v -0.995455 10.011055 0.726919
v -0.721857 10.011055 1.000518
v -0.377101 10.011055 1.176180
v 0.005063 10.011055 1.236709
v 0.387227 10.011055 1.176180
v 0.731982 10.011055 1.000518
v 1.005580 10.011055 0.726919
v 1.181242 10.011055 0.382164
v 1.241771 10.011055 0.000000
v 0.005063 4.408196 0.000000
v 0.005063 10.011055 0.000000
vt 0.695351 0.239911
vt 0.695356 0.224221
vt 0.506421 0.224124
vt 0.506417 0.239814
vt 0.695359 0.211769
vt 0.506425 0.211672
vt 0.695346 0.257303
vt 0.506412 0.257206
vt 0.695341 0.274695
vt 0.506407 0.274598
vt 0.695337 0.290385
vt 0.506402 0.290288
vt 0.695333 0.302837
vt 0.506399 0.302740
vt 0.694821 0.446399
vt 0.694825 0.430709
vt 0.505891 0.430612
vt 0.505886 0.446302
vt 0.694830 0.413317
vt 0.505896 0.413220
vt 0.694817 0.458851
vt 0.505883 0.458754
vt 0.694835 0.395924
vt 0.505901 0.395827
vt 0.694840 0.380234
vt 0.505905 0.380137
vt 0.694843 0.367783
vt 0.505909 0.367686
vt -0.225748 0.766775
vt -0.183391 0.745193
vt -0.136437 0.889701
vt -0.136437 0.737756
vt -0.259363 0.800390
vt -0.089483 0.745193
vt -0.280945 0.842747
vt -0.047126 0.766775
vt -0.288382 0.889701
vt -0.013511 0.800390
vt -0.280945 0.936655
vt 0.008071 0.842747
vt -0.259363 0.979012
vt 0.015508 0.889701
vt -0.225748 1.012627
vt 0.008071 0.936655
vt -0.183391 1.034209
vt -0.013511 0.979012
vt -0.136437 1.041646
vt -0.047126 1.012627
vt -0.089483 1.034209
vt -0.301575 0.936655
vt -0.323157 0.979012
vt -0.446083 0.889701
vt -0.356772 1.012627
vt -0.294138 0.889701
vt -0.399129 1.034209
vt -0.301575 0.842748
vt -0.446083 1.041646
vt -0.323157 0.800390
vt -0.493037 1.034209
vt -0.356772 0.766775
vt -0.535394 1.012627
vt -0.399129 0.745193
vt -0.569009 0.979012
vt -0.446083 0.737756
vt -0.590591 0.936655
vt -0.493037 0.745193
vt -0.598028 0.889701
vt -0.535394 0.766775
vt -0.590591 0.842748
vt -0.569009 0.800390
vt 0.695446 0.211949
vt 0.695450 0.196259
vt 0.506516 0.196162
vt 0.506512 0.211852
vt 0.695455 0.178867
vt 0.506521 0.178770
vt 0.695460 0.161474
vt 0.506526 0.161377
vt 0.695465 0.145784
vt 0.506530 0.145687
vt 0.694844 0.368580
vt 0.694848 0.352890
vt 0.505914 0.352793
vt 0.505909 0.368483
vt 0.694853 0.335498
vt 0.505919 0.335401
vt 0.694858 0.318105
vt 0.505924 0.318008
vt 0.694862 0.302415
vt 0.505928 0.302318
vn 0.951057 0.000000 -0.309016
vn 0.809017 0.000000 -0.587785
vn 0.951057 0.000000 -0.309016
vn 0.809017 0.000000 -0.587785
vn 0.809017 0.000000 -0.587785
vn 0.587785 0.000000 -0.809017
vn 0.809017 0.000000 -0.587785
vn 0.587785 0.000000 -0.809017
vn 0.587785 0.000000 -0.809017
vn 0.309017 0.000000 -0.951057
vn 0.587785 0.000000 -0.809017
vn 0.309017 0.000000 -0.951057
vn 0.309017 0.000000 -0.951057
vn 0.000000 0.000000 -1.000000
vn 0.309017 0.000000 -0.951057
vn 0.000000 0.000000 -1.000000
vn 0.000000 0.000000 -1.000000
vn -0.309017 0.000000 -0.951056
vn 0.000000 0.000000 -1.000000
vn -0.309017 0.000000 -0.951056
vn -0.309017 0.000000 -0.951056
vn -0.587785 0.000000 -0.809017
vn -0.309017 0.000000 -0.951056
vn -0.587785 0.000000 -0.809017
vn -0.587785 0.000000 -0.809017
vn -0.809017 0.000000 -0.587785
vn -0.587785 0.000000 -0.809017
vn -0.809017 0.000000 -0.587785
vn -0.809017 0.000000 -0.587785
vn -0.951057 0.000000 -0.309017
vn -0.809017 0.000000 -0.587785
vn -0.951057 0.000000 -0.309017
vn -0.951057 0.000000 -0.309017
vn -1.000000 0.000000 0.000000
vn -0.951057 0.000000 -0.309017
vn -1.000000 0.000000 0.000000
vn -1.000000 0.000000 0.000000
vn -0.951057 0.000000 0.309017
vn -1.000000 0.000000 0.000000
vn -0.951057 0.000000 0.309017
vn -0.951057 0.000000 0.309017
vn -0.809017 0.000000 0.587785
vn -0.951057 0.000000 0.309017
vn -0.809017 0.000000 0.587785
vn -0.809017 0.000000 0.587785
vn -0.587785 0.000000 0.809017
vn -0.809017 0.000000 0.587785
vn -0.587785 0.000000 0.809017
vn -0.587785 0.000000 0.809017
vn -0.309017 0.000000 0.951057
vn -0.587785 0.000000 0.809017
vn -0.309017 0.000000 0.951057
vn -0.309017 0.000000 0.951057
vn 0.000000 0.000000 1.000000
vn -0.309017 0.000000 0.951057
vn 0.000000 0.000000 1.000000
vn 0.000000 0.000000 1.000000
vn 0.309017 0.000000 0.951057
vn 0.000000 0.000000 1.000000
vn 0.309017 0.000000 0.951057
vn 0.309017 0.000000 0.951057
vn 0.587785 0.000000 0.809017
vn 0.309017 0.000000 0.951057
vn 0.587785 0.000000 0.809017
vn 0.587785 0.000000 0.809017
vn 0.809017 0.000000 0.587785
vn 0.587785 0.000000 0.809017
vn 0.809017 0.000000 0.587785
vn 0.809017 0.000000 0.587785
vn 0.951057 0.000000 0.309017
vn 0.809017 0.000000 0.587785
vn 0.951057 0.000000 0.309017
vn 0.951057 0.000000 0.309017
vn 1.000000 0.000000 0.000001
vn 0.951057 0.000000 0.309017
vn 1.000000 0.000000 0.000001
vn 1.000000 0.000000 0.000001
vn 0.951057 0.000000 -0.309016
vn 1.000000 0.000000 0.000001
vn 0.951057 0.000000 -0.309016
vn 0.000000 -1.000000 0.000000
vn 0.000000 -1.000000 0.000000
vn 0.000000 -1.000000 0.000000
vn 0.000000 -1.000000 0.000000
vn 0.000000 -1.000000 0.000000
vn 0.000000 -1.000000 0.000000
vn 0.000000 -1.000000 0.000000
vn 0.000000 -1.000000 0.000000
vn 0.000000 -1.000000 0.000000
vn 0.000000 -1.000000 0.000000
vn 0.000000 -1.000000 0.000000
vn 0.000000 -1.000000 0.000000
vn 0.000000 -1.000000 0.000000
vn 0.000000 -1.000000 0.000000
vn 0.000000 -1.000000 0.000000
vn 0.000000 -1.000000 0.000000
vn 0.000000 -1.000000 0.000000
vn 0.000000 -1.000000 0.000000
vn 0.000000 -1.000000 0.000000
vn 0.000000 -1.000000 0.000000
vn 0.000000 -1.000000 0.000000
vn 0.000000 -1.000000 0.000000
vn 0.000000 -1.000000 0.000000
vn 0.000000 -1.000000 0.000000
vn 0.000000 -1.000000 0.000000
vn 0.000000 -1.000000 0.000000
vn 0.000000 -1.000000 0.000000
vn 0.000000 -1.000000 0.000000
vn 0.000000 -1.000000 0.000000
vn 0.000000 -1.000000 0.000000
vn 0.000000 -1.000000 0.000000
vn 0.000000 -1.000000 0.000000
vn 0.000000 -1.000000 0.000000
vn 0.000000 -1.000000 0.000000
vn 0.000000 -1.000000 0.000000
vn 0.000000 -1.000000 0.000000
vn 0.000000 -1.000000 0.000000
vn 0.000000 -1.000000 0.000000
vn 0.000000 -1.000000 0.000000
vn 0.000000 -1.000000 0.000000
vn 0.000000 -1.000000 0.000000
vn 0.000000 -1.000000 0.000000
vn 0.000000 -1.000000 0.000000
vn 0.000000 -1.000000 0.000000
vn 0.000000 -1.000000 0.000000
vn 0.000000 -1.000000 0.000000
vn 0.000000 -1.000000 0.000000
vn 0.000000 -1.000000 0.000000
vn 0.000000 -1.000000 0.000000
vn 0.000000 -1.000000 0.000000
vn 0.000000 -1.000000 0.000000
vn 0.000000 -1.000000 0.000000
vn 0.000000 -1.000000 0.000000
vn 0.000000 -1.000000 0.000000
vn 0.000000 -1.000000 0.000000
vn 0.000000 -1.000000 0.000000
vn 0.000000 -1.000000 0.000000
vn 0.000000 -1.000000 0.000000
vn 0.000000 -1.000000 0.000000
vn 0.000000 -1.000000 0.000000
vn 0.000000 1.000000 0.000000
vn 0.000000 1.000000 0.000000
vn 0.000000 1.000000 0.000000
vn 0.000000 1.000000 0.000000
vn 0.000000 1.000000 0.000000
vn 0.000000 1.000000 0.000000
vn 0.000000 1.000000 0.000000
vn 0.000000 1.000000 0.000000
vn 0.000000 1.000000 0.000000
vn 0.000000 1.000000 0.000000
vn 0.000000 1.000000 0.000000
vn 0.000000 1.000000 0.000000
vn 0.000000 1.000000 0.000000
vn 0.000000 1.000000 0.000000
vn 0.000000 1.000000 0.000000
vn 0.000000 1.000000 0.000000
vn 0.000000 1.000000 0.000000
vn 0.000000 1.000000 0.000000
vn 0.000000 1.000000 0.000000
vn 0.000000 1.000000 0.000000
vn 0.000000 1.000000 0.000000
vn 0.000000 1.000000 0.000000
vn 0.000000 1.000000 0.000000
vn 0.000000 1.000000 0.000000
vn 0.000000 1.000000 0.000000
vn 0.000000 1.000000 0.000000
vn 0.000000 1.000000 0.000000
vn 0.000000 1.000000 0.000000
vn 0.000000 1.000000 0.000000
vn 0.000000 1.000000 0.000000
vn 0.000000 1.000000 0.000000
vn 0.000000 1.000000 0.000000
vn 0.000000 1.000000 0.000000
vn 0.000000 1.000000 0.000000
vn 0.000000 1.000000 0.000000
vn 0.000000 1.000000 0.000000
vn 0.000000 1.000000 0.000000
vn 0.000000 1.000000 0.000000
vn 0.000000 1.000000 0.000000
vn 0.000000 1.000000 0.000000
vn 0.000000 1.000000 0.000000
vn 0.000000 1.000000 0.000000
vn 0.000000 1.000000 0.000000
vn 0.000000 1.000000 0.000000
vn 0.000000 1.000000 0.000000
vn 0.000000 1.000000 0.000000
vn 0.000000 1.000000 0.000000
vn 0.000000 1.000000 0.000000
vn 0.000000 1.000000 0.000000
vn 0.000000 1.000000 0.000000
vn 0.000000 1.000000 0.000000
vn 0.000000 1.000000 0.000000
vn 0.000000 1.000000 0.000000
vn 0.000000 1.000000 0.000000
vn 0.000000 1.000000 0.000000
vn 0.000000 1.000000 0.000000
vn 0.000000 1.000000 0.000000
vn 0.000000 1.000000 0.000000
vn 0.000000 1.000000 0.000000
vn 0.000000 1.000000 0.000000
s 1
g Man2Body:MainbodyDUDE1
usemtl lambert2SG
f 1/1/1 2/2/2 21/4/3
f 21/4/3 2/2/2 22/3/4
s 2
f 2/2/5 3/5/6 22/3/7
f 22/3/7 3/5/6 23/6/8
s 3
f 3/71/9 4/72/10 23/74/11
f 23/74/11 4/72/10 24/73/12
s 4
f 4/72/13 5/75/14 24/73/15
f 24/73/15 5/75/14 25/76/16
s 5
f 5/75/17 6/77/18 25/76/19
f 25/76/19 6/77/18 26/78/20
s 6
f 6/77/21 7/79/22 26/78/23
f 26/78/23 7/79/22 27/80/24
s 7
f 7/21/25 8/15/26 27/22/27
f 27/22/27 8/15/26 28/18/28
s 8
f 8/15/29 9/16/30 28/18/31
f 28/18/31 9/16/30 29/17/32
s 9
f 9/16/33 10/19/34 29/17/35
f 29/17/35 10/19/34 30/20/36
s 10
f 10/19/37 11/23/38 30/20/39
f 30/20/39 11/23/38 31/24/40
s 11
f 11/23/41 12/25/42 31/24/43
f 31/24/43 12/25/42 32/26/44
s 12
f 12/25/45 13/27/46 32/26/47
f 32/26/47 13/27/46 33/28/48
s 13
f 13/81/49 14/82/50 33/84/51
f 33/84/51 14/82/50 34/83/52
s 14
f 14/82/53 15/85/54 34/83/55
f 34/83/55 15/85/54 35/86/56
s 15
f 15/85/57 16/87/58 35/86/59
f 35/86/59 16/87/58 36/88/60
s 16
f 16/87/61 17/89/62 36/88/63
f 36/88/63 17/89/62 37/90/64
s 17
f 17/13/65 18/11/66 37/14/67
f 37/14/67 18/11/66 38/12/68
s 18
f 18/11/69 19/9/70 38/12/71
f 38/12/71 19/9/70 39/10/72
s 19
f 19/9/73 20/7/74 39/10/75
f 39/10/75 20/7/74 40/8/76
s 20
f 20/7/77 1/1/78 40/8/79
f 40/8/79 1/1/78 21/4/80
s off
f 2/29/81 1/30/82 41/31/83
f 3/33/84 2/29/85 41/31/86
f 4/35/87 3/33/88 41/31/89
f 5/37/90 4/35/91 41/31/92
f 6/39/93 5/37/94 41/31/95
f 7/41/96 6/39/97 41/31/98
f 8/43/99 7/41/100 41/31/101
f 9/45/102 8/43/103 41/31/104
f 10/47/105 9/45/106 41/31/107
f 11/49/108 10/47/109 41/31/110
f 12/48/111 11/49/112 41/31/113
f 13/46/114 12/48/115 41/31/116
f 14/44/117 13/46/118 41/31/119
f 15/42/120 14/44/121 41/31/122
f 16/40/123 15/42/124 41/31/125
f 17/38/126 16/40/127 41/31/128
f 18/36/129 17/38/130 41/31/131
f 19/34/132 18/36/133 41/31/134
f 20/32/135 19/34/136 41/31/137
f 1/30/138 20/32/139 41/31/140
f 21/50/141 22/51/142 42/52/143
f 22/51/144 23/53/145 42/52/146
f 23/53/147 24/55/148 42/52/149
f 24/55/150 25/57/151 42/52/152
f 25/57/153 26/59/154 42/52/155
f 26/59/156 27/61/157 42/52/158
f 27/61/159 28/63/160 42/52/161
f 28/63/162 29/65/163 42/52/164
f 29/65/165 30/67/166 42/52/167
f 30/67/168 31/69/169 42/52/170
f 31/69/171 32/70/172 42/52/173
f 32/70/174 33/68/175 42/52/176
f 33/68/177 34/66/178 42/52/179
f 34/66/180 35/64/181 42/52/182
f 35/64/183 36/62/184 42/52/185
f 36/62/186 37/60/187 42/52/188
f 37/60/189 38/58/190 42/52/191
f 38/58/192 39/56/193 42/52/194
f 39/56/195 40/54/196 42/52/197
f 40/54/198 21/50/199 42/52/200
