# This file uses centimeters as units for non-parametric coordinates.

mtllib chatbubble.mtl
g default
v -0.142661 2.241012 0.000000
v 0.847519 2.934096 0.000000
v 1.368342 2.934096 0.000000
v 1.889166 2.934096 0.000000
v 2.409989 2.934096 0.000000
v 2.930813 2.934096 0.000000
v 3.451637 2.934096 0.000000
v 3.972460 2.934096 0.000000
v 4.493284 2.934096 0.000000
v 5.014107 2.934096 0.000000
v 5.534931 3.240865 0.000000
v 0.326695 3.240865 0.000000
v 0.847519 3.240865 0.000000
v 1.368342 3.240865 0.000000
v 1.889166 3.240865 0.000000
v 2.409989 3.240865 0.000000
v 2.930813 3.240865 0.000000
v 3.451637 3.240865 0.000000
v 3.972460 3.240865 0.000000
v 4.493284 3.240865 0.000000
v 5.014107 3.240865 0.000000
v 0.326696 3.547635 0.000000
v 0.847519 3.547635 0.000000
v 1.368342 3.547635 0.000000
v 1.889166 3.547635 0.000000
v 2.409989 3.547635 0.000000
v 2.930813 3.547635 0.000000
v 3.451637 3.547635 0.000000
v 3.972460 3.547635 0.000000
v 4.493284 3.547635 0.000000
v 5.014107 3.547635 0.000000
v 5.534931 3.547635 0.000000
v 0.326696 3.854404 0.000000
v 0.847519 3.854404 0.000000
v 1.368342 3.854404 0.000000
v 1.889166 3.854404 0.000000
v 2.409989 3.854404 0.000000
v 2.930813 3.854404 0.000000
v 3.451637 3.854404 0.000000
v 3.972460 3.854404 0.000000
v 4.493284 3.854404 0.000000
v 5.014107 3.854404 0.000000
v 5.534931 3.854404 0.000000
v 0.326696 4.161173 0.000000
v 0.847519 4.161173 0.000000
v 1.368342 4.161173 0.000000
v 1.889166 4.161173 0.000000
v 2.409989 4.161173 0.000000
v 2.930813 4.161173 0.000000
v 3.451637 4.161173 0.000000
v 3.972460 4.161173 0.000000
v 4.493284 4.161173 0.000000
v 5.014107 4.161173 0.000000
v 5.534931 4.161173 0.000000
v 0.326696 4.467942 0.000000
v 0.847519 4.467942 0.000000
v 1.368342 4.467942 0.000000
v 1.889166 4.467942 0.000000
v 2.409989 4.467942 0.000000
v 2.930813 4.467942 0.000000
v 3.451637 4.467942 0.000000
v 3.972460 4.467942 0.000000
v 4.493284 4.467942 0.000000
v 5.014107 4.467942 0.000000
v 5.534931 4.467942 0.000000
v 0.326696 4.774712 0.000000
v 0.847519 4.774712 0.000000
v 1.368342 4.774712 0.000000
v 1.889166 4.774712 0.000000
v 2.409989 4.774712 0.000000
v 2.930813 4.774712 0.000000
v 3.451637 4.774712 0.000000
v 3.972460 4.774712 0.000000
v 4.493284 4.774712 0.000000
v 5.014107 4.774712 0.000000
v 5.534931 4.774712 0.000000
v 0.326696 5.081481 0.000000
v 0.847519 5.081481 0.000000
v 1.368342 5.081481 0.000000
v 1.889166 5.081481 0.000000
v 2.409989 5.081481 0.000000
v 2.930813 5.081481 0.000000
v 3.451637 5.081481 0.000000
v 3.972460 5.081481 0.000000
v 4.493284 5.081481 0.000000
v 5.014107 5.081481 0.000000
v 5.534931 5.081481 0.000000
v 0.326696 5.388250 0.000000
v 0.847519 5.388250 0.000000
v 1.368342 5.388250 0.000000
v 1.889166 5.388250 0.000000
v 2.409989 5.388250 0.000000
v 2.930813 5.388250 0.000000
v 3.451637 5.388250 0.000000
v 3.972460 5.388250 0.000000
v 4.493284 5.388250 0.000000
v 5.014107 5.388250 0.000000
v 5.534931 5.388250 0.000000
v 0.326694 5.695020 0.000000
v 0.847519 5.695020 0.000000
v 1.368342 5.695020 0.000000
v 1.889166 5.695020 0.000000
v 2.409989 5.695020 0.000000
v 2.930813 5.695020 0.000000
v 3.451637 5.695020 0.000000
v 3.972460 5.695020 0.000000
v 4.493284 5.695020 0.000000
v 5.014107 5.695020 0.000000
v 5.534930 5.695020 0.000000
v 0.847519 6.001788 0.000000
v 1.368342 6.001788 0.000000
v 1.889166 6.001788 0.000000
v 2.409989 6.001788 0.000000
v 2.930813 6.001788 0.000000
v 3.451637 6.001788 0.000000
v 3.972460 6.001788 0.000000
v 4.493284 6.001788 0.000000
v 5.014107 6.001788 0.000000
vt 0.000000 0.000000
vt 0.100000 0.000000
vt 0.100000 0.100000
vt 0.000000 0.100000
vt 0.200000 0.000000
vt 0.200000 0.100000
vt 0.300000 0.000000
vt 0.300000 0.100000
vt 0.400000 0.000000
vt 0.400000 0.100000
vt 0.500000 0.000000
vt 0.500000 0.100000
vt 0.600000 0.000000
vt 0.600000 0.100000
vt 0.700000 0.000000
vt 0.700000 0.100000
vt 0.800000 0.000000
vt 0.800000 0.100000
vt 0.900000 0.000000
vt 0.900000 0.100000
vt 1.000000 0.050000
vt 0.100000 0.200000
vt 0.000000 0.200000
vt 0.200000 0.200000
vt 0.300000 0.200000
vt 0.400000 0.200000
vt 0.500000 0.200000
vt 0.600000 0.200000
vt 0.700000 0.200000
vt 0.800000 0.200000
vt 0.900000 0.200000
vt 1.000000 0.200000
vt 0.100000 0.300000
vt 0.000000 0.300000
vt 0.200000 0.300000
vt 0.300000 0.300000
vt 0.400000 0.300000
vt 0.500000 0.300000
vt 0.600000 0.300000
vt 0.700000 0.300000
vt 0.800000 0.300000
vt 0.900000 0.300000
vt 1.000000 0.300000
vt 0.100000 0.400000
vt 0.000000 0.400000
vt 0.200000 0.400000
vt 0.300000 0.400000
vt 0.400000 0.400000
vt 0.500000 0.400000
vt 0.600000 0.400000
vt 0.700000 0.400000
vt 0.800000 0.400000
vt 0.900000 0.400000
vt 1.000000 0.400000
vt 0.100000 0.500000
vt 0.000000 0.500000
vt 0.200000 0.500000
vt 0.300000 0.500000
vt 0.400000 0.500000
vt 0.500000 0.500000
vt 0.600000 0.500000
vt 0.700000 0.500000
vt 0.800000 0.500000
vt 0.900000 0.500000
vt 1.000000 0.500000
vt 0.100000 0.600000
vt 0.000000 0.600000
vt 0.200000 0.600000
vt 0.300000 0.600000
vt 0.400000 0.600000
vt 0.500000 0.600000
vt 0.600000 0.600000
vt 0.700000 0.600000
vt 0.800000 0.600000
vt 0.900000 0.600000
vt 1.000000 0.600000
vt 0.100000 0.700000
vt 0.000000 0.700000
vt 0.200000 0.700000
vt 0.300000 0.700000
vt 0.400000 0.700000
vt 0.500000 0.700000
vt 0.600000 0.700000
vt 0.700000 0.700000
vt 0.800000 0.700000
vt 0.900000 0.700000
vt 1.000000 0.700000
vt 0.100000 0.800000
vt 0.000000 0.800000
vt 0.200000 0.800000
vt 0.300000 0.800000
vt 0.400000 0.800000
vt 0.500000 0.800000
vt 0.600000 0.800000
vt 0.700000 0.800000
vt 0.800000 0.800000
vt 0.900000 0.800000
vt 1.000000 0.800000
vt 0.100000 0.900000
vt 0.000000 0.950000
vt 0.200000 0.900000
vt 0.300000 0.900000
vt 0.400000 0.900000
vt 0.500000 0.900000
vt 0.600000 0.900000
vt 0.700000 0.900000
vt 0.800000 0.900000
vt 0.900000 0.900000
vt 1.000000 0.950000
vt 0.100000 1.000000
vt 0.200000 1.000000
vt 0.300000 1.000000
vt 0.400000 1.000000
vt 0.500000 1.000000
vt 0.600000 1.000000
vt 0.700000 1.000000
vt 0.800000 1.000000
vt 0.900000 1.000000
vn 0.000000 0.000000 1.000000
vn 0.000000 0.000000 1.000000
vn 0.000000 0.000000 1.000000
vn 0.000000 0.000000 1.000000
vn 0.000000 0.000000 1.000000
vn 0.000000 0.000000 1.000000
vn 0.000000 0.000000 1.000000
vn 0.000000 0.000000 1.000000
vn 0.000000 0.000000 1.000000
vn 0.000000 0.000000 1.000000
vn 0.000000 0.000000 1.000000
vn 0.000000 0.000000 1.000000
vn 0.000000 0.000000 1.000000
vn 0.000000 0.000000 1.000000
vn 0.000000 0.000000 1.000000
vn 0.000000 0.000000 1.000000
vn 0.000000 0.000000 1.000000
vn 0.000000 0.000000 1.000000
vn 0.000000 0.000000 1.000000
vn 0.000000 0.000000 1.000000
vn 0.000000 0.000000 1.000000
vn 0.000000 0.000000 1.000000
vn 0.000000 0.000000 1.000000
vn 0.000000 0.000000 1.000000
vn 0.000000 0.000000 1.000000
vn 0.000000 0.000000 1.000000
vn 0.000000 0.000000 1.000000
vn 0.000000 0.000000 1.000000
vn 0.000000 0.000000 1.000000
vn 0.000000 0.000000 1.000000
vn 0.000000 0.000000 1.000000
vn 0.000000 0.000000 1.000000
vn 0.000000 0.000000 1.000000
vn 0.000000 0.000000 1.000000
vn 0.000000 0.000000 1.000000
vn 0.000000 0.000000 1.000000
vn 0.000000 0.000000 1.000000
vn 0.000000 0.000000 1.000000
vn 0.000000 0.000000 1.000000
vn 0.000000 0.000000 1.000000
vn 0.000000 0.000000 1.000000
vn 0.000000 0.000000 1.000000
vn 0.000000 0.000000 1.000000
vn 0.000000 0.000000 1.000000
vn 0.000000 0.000000 1.000000
vn 0.000000 0.000000 1.000000
vn 0.000000 0.000000 1.000000
vn 0.000000 0.000000 1.000000
vn 0.000000 0.000000 1.000000
vn 0.000000 0.000000 1.000000
vn 0.000000 0.000000 1.000000
vn 0.000000 0.000000 1.000000
vn 0.000000 0.000000 1.000000
vn 0.000000 0.000000 1.000000
vn 0.000000 0.000000 1.000000
vn 0.000000 0.000000 1.000000
vn 0.000000 0.000000 1.000000
vn 0.000000 0.000000 1.000000
vn 0.000000 0.000000 1.000000
vn 0.000000 0.000000 1.000000
vn 0.000000 0.000000 1.000000
vn 0.000000 0.000000 1.000000
vn 0.000000 0.000000 1.000000
vn 0.000000 0.000000 1.000000
vn 0.000000 0.000000 1.000000
vn 0.000000 0.000000 1.000000
vn 0.000000 0.000000 1.000000
vn 0.000000 0.000000 1.000000
vn 0.000000 0.000000 1.000000
vn 0.000000 0.000000 1.000000
vn 0.000000 0.000000 1.000000
vn 0.000000 0.000000 1.000000
vn 0.000000 0.000000 1.000000
vn 0.000000 0.000000 1.000000
vn 0.000000 0.000000 1.000000
vn 0.000000 0.000000 1.000000
vn 0.000000 0.000000 1.000000
vn 0.000000 0.000000 1.000000
vn 0.000000 0.000000 1.000000
vn 0.000000 0.000000 1.000000
vn 0.000000 0.000000 1.000000
vn 0.000000 0.000000 1.000000
vn 0.000000 0.000000 1.000000
vn 0.000000 0.000000 1.000000
vn 0.000000 0.000000 1.000000
vn 0.000000 0.000000 1.000000
vn 0.000000 0.000000 1.000000
vn 0.000000 0.000000 1.000000
vn 0.000000 0.000000 1.000000
vn 0.000000 0.000000 1.000000
vn 0.000000 0.000000 1.000000
vn 0.000000 0.000000 1.000000
vn 0.000000 0.000000 1.000000
vn 0.000000 0.000000 1.000000
vn 0.000000 0.000000 1.000000
vn 0.000000 0.000000 1.000000
vn 0.000000 0.000000 1.000000
vn 0.000000 0.000000 1.000000
vn 0.000000 0.000000 1.000000
vn 0.000000 0.000000 1.000000
vn 0.000000 0.000000 1.000000
vn 0.000000 0.000000 1.000000
vn 0.000000 0.000000 1.000000
vn 0.000000 0.000000 1.000000
vn 0.000000 0.000000 1.000000
vn 0.000000 0.000000 1.000000
vn 0.000000 0.000000 1.000000
vn 0.000000 0.000000 1.000000
vn 0.000000 0.000000 1.000000
vn 0.000000 0.000000 1.000000
vn 0.000000 0.000000 1.000000
vn 0.000000 0.000000 1.000000
vn 0.000000 0.000000 1.000000
vn 0.000000 0.000000 1.000000
vn 0.000000 0.000000 1.000000
vn 0.000000 0.000000 1.000000
vn 0.000000 0.000000 1.000000
vn 0.000000 0.000000 1.000000
vn 0.000000 0.000000 1.000000
vn 0.000000 0.000000 1.000000
vn 0.000000 0.000000 1.000000
vn 0.000000 0.000000 1.000000
vn 0.000000 0.000000 1.000000
vn 0.000000 0.000000 1.000000
vn 0.000000 0.000000 1.000000
vn 0.000000 0.000000 1.000000
vn 0.000000 0.000000 1.000000
vn 0.000000 0.000000 1.000000
vn 0.000000 0.000000 1.000000
vn 0.000000 0.000000 1.000000
vn 0.000000 0.000000 1.000000
vn 0.000000 0.000000 1.000000
vn 0.000000 0.000000 1.000000
vn 0.000000 0.000000 1.000000
vn 0.000000 0.000000 1.000000
vn 0.000000 0.000000 1.000000
vn 0.000000 0.000000 1.000000
vn 0.000000 0.000000 1.000000
vn 0.000000 0.000000 1.000000
vn 0.000000 0.000000 1.000000
vn 0.000000 0.000000 1.000000
vn 0.000000 0.000000 1.000000
vn 0.000000 0.000000 1.000000
vn 0.000000 0.000000 1.000000
vn 0.000000 0.000000 1.000000
vn 0.000000 0.000000 1.000000
vn 0.000000 0.000000 1.000000
vn 0.000000 0.000000 1.000000
vn 0.000000 0.000000 1.000000
vn 0.000000 0.000000 1.000000
vn 0.000000 0.000000 1.000000
vn 0.000000 0.000000 1.000000
vn 0.000000 0.000000 1.000000
vn 0.000000 0.000000 1.000000
vn 0.000000 0.000000 1.000000
vn 0.000000 0.000000 1.000000
vn 0.000000 0.000000 1.000000
vn 0.000000 0.000000 1.000000
vn 0.000000 0.000000 1.000000
vn 0.000000 0.000000 1.000000
vn 0.000000 0.000000 1.000000
vn 0.000000 0.000000 1.000000
vn 0.000000 0.000000 1.000000
vn 0.000000 0.000000 1.000000
vn 0.000000 0.000000 1.000000
vn 0.000000 0.000000 1.000000
vn 0.000000 0.000000 1.000000
vn 0.000000 0.000000 1.000000
vn 0.000000 0.000000 1.000000
vn 0.000000 0.000000 1.000000
vn 0.000000 0.000000 1.000000
vn 0.000000 0.000000 1.000000
vn 0.000000 0.000000 1.000000
vn 0.000000 0.000000 1.000000
vn 0.000000 0.000000 1.000000
vn 0.000000 0.000000 1.000000
vn 0.000000 0.000000 1.000000
vn 0.000000 0.000000 1.000000
vn 0.000000 0.000000 1.000000
vn 0.000000 0.000000 1.000000
vn 0.000000 0.000000 1.000000
vn 0.000000 0.000000 1.000000
vn 0.000000 0.000000 1.000000
vn 0.000000 0.000000 1.000000
vn 0.000000 0.000000 1.000000
vn 0.000000 0.000000 1.000000
vn 0.000000 0.000000 1.000000
vn 0.000000 0.000000 1.000000
vn 0.000000 0.000000 1.000000
vn 0.000000 0.000000 1.000000
vn 0.000000 0.000000 1.000000
vn 0.000000 0.000000 1.000000
vn 0.000000 0.000000 1.000000
vn 0.000000 0.000000 1.000000
vn 0.000000 0.000000 1.000000
vn 0.000000 0.000000 1.000000
vn 0.000000 0.000000 1.000000
vn 0.000000 0.000000 1.000000
vn 0.000000 0.000000 1.000000
vn 0.000000 0.000000 1.000000
vn 0.000000 0.000000 1.000000
vn 0.000000 0.000000 1.000000
vn 0.000000 0.000000 1.000000
vn 0.000000 0.000000 1.000000
vn 0.000000 0.000000 1.000000
vn 0.000000 0.000000 1.000000
vn 0.000000 0.000000 1.000000
vn 0.000000 0.000000 1.000000
vn 0.000000 0.000000 1.000000
vn 0.000000 0.000000 1.000000
vn 0.000000 0.000000 1.000000
vn 0.000000 0.000000 1.000000
vn 0.000000 0.000000 1.000000
vn 0.000000 0.000000 1.000000
vn 0.000000 0.000000 1.000000
vn 0.000000 0.000000 1.000000
vn 0.000000 0.000000 1.000000
vn 0.000000 0.000000 1.000000
vn 0.000000 0.000000 1.000000
vn 0.000000 0.000000 1.000000
vn 0.000000 0.000000 1.000000
vn 0.000000 0.000000 1.000000
vn 0.000000 0.000000 1.000000
vn 0.000000 0.000000 1.000000
vn 0.000000 0.000000 1.000000
vn 0.000000 0.000000 1.000000
vn 0.000000 0.000000 1.000000
vn 0.000000 0.000000 1.000000
vn 0.000000 0.000000 1.000000
vn 0.000000 0.000000 1.000000
vn 0.000000 0.000000 1.000000
vn 0.000000 0.000000 1.000000
vn 0.000000 0.000000 1.000000
vn 0.000000 0.000000 1.000000
vn 0.000000 0.000000 1.000000
vn 0.000000 0.000000 1.000000
vn 0.000000 0.000000 1.000000
vn 0.000000 0.000000 1.000000
vn 0.000000 0.000000 1.000000
vn 0.000000 0.000000 1.000000
vn 0.000000 0.000000 1.000000
vn 0.000000 0.000000 1.000000
vn 0.000000 0.000000 1.000000
vn 0.000000 0.000000 1.000000
vn 0.000000 0.000000 1.000000
vn 0.000000 0.000000 1.000000
vn 0.000000 0.000000 1.000000
vn 0.000000 0.000000 1.000000
vn 0.000000 0.000000 1.000000
vn 0.000000 0.000000 1.000000
vn 0.000000 0.000000 1.000000
vn 0.000000 0.000000 1.000000
vn 0.000000 0.000000 1.000000
vn 0.000000 0.000000 1.000000
vn 0.000000 0.000000 1.000000
vn 0.000000 0.000000 1.000000
vn 0.000000 0.000000 1.000000
vn 0.000000 0.000000 1.000000
vn 0.000000 0.000000 1.000000
vn 0.000000 0.000000 1.000000
vn 0.000000 0.000000 1.000000
vn 0.000000 0.000000 1.000000
vn 0.000000 0.000000 1.000000
vn 0.000000 0.000000 1.000000
vn 0.000000 0.000000 1.000000
vn 0.000000 0.000000 1.000000
vn 0.000000 0.000000 1.000000
vn 0.000000 0.000000 1.000000
vn 0.000000 0.000000 1.000000
vn 0.000000 0.000000 1.000000
vn 0.000000 0.000000 1.000000
vn 0.000000 0.000000 1.000000
vn 0.000000 0.000000 1.000000
vn 0.000000 0.000000 1.000000
vn 0.000000 0.000000 1.000000
vn 0.000000 0.000000 1.000000
vn 0.000000 0.000000 1.000000
vn 0.000000 0.000000 1.000000
vn 0.000000 0.000000 1.000000
vn 0.000000 0.000000 1.000000
vn 0.000000 0.000000 1.000000
vn 0.000000 0.000000 1.000000
vn 0.000000 0.000000 1.000000
vn 0.000000 0.000000 1.000000
vn 0.000000 0.000000 1.000000
vn 0.000000 0.000000 1.000000
vn 0.000000 0.000000 1.000000
vn 0.000000 0.000000 1.000000
vn 0.000000 0.000000 1.000000
vn 0.000000 0.000000 1.000000
vn 0.000000 0.000000 1.000000
vn 0.000000 0.000000 1.000000
vn 0.000000 0.000000 1.000000
vn 0.000000 0.000000 1.000000
vn 0.000000 0.000000 1.000000
vn 0.000000 0.000000 1.000000
vn 0.000000 0.000000 1.000000
vn 0.000000 0.000000 1.000000
vn 0.000000 0.000000 1.000000
vn 0.000000 0.000000 1.000000
vn 0.000000 0.000000 1.000000
vn 0.000000 0.000000 1.000000
vn 0.000000 0.000000 1.000000
vn 0.000000 0.000000 1.000000
vn 0.000000 0.000000 1.000000
vn 0.000000 0.000000 1.000000
vn 0.000000 0.000000 1.000000
vn 0.000000 0.000000 1.000000
vn 0.000000 0.000000 1.000000
vn 0.000000 0.000000 1.000000
vn 0.000000 0.000000 1.000000
vn 0.000000 0.000000 1.000000
vn 0.000000 0.000000 1.000000
vn 0.000000 0.000000 1.000000
vn 0.000000 0.000000 1.000000
vn 0.000000 0.000000 1.000000
vn 0.000000 0.000000 1.000000
vn 0.000000 0.000000 1.000000
vn 0.000000 0.000000 1.000000
vn 0.000000 0.000000 1.000000
vn 0.000000 0.000000 1.000000
vn 0.000000 0.000000 1.000000
vn 0.000000 0.000000 1.000000
vn 0.000000 0.000000 1.000000
vn 0.000000 0.000000 1.000000
vn 0.000000 0.000000 1.000000
vn 0.000000 0.000000 1.000000
vn 0.000000 0.000000 1.000000
vn 0.000000 0.000000 1.000000
vn 0.000000 0.000000 1.000000
vn 0.000000 0.000000 1.000000
vn 0.000000 0.000000 1.000000
vn 0.000000 0.000000 1.000000
vn 0.000000 0.000000 1.000000
vn 0.000000 0.000000 1.000000
vn 0.000000 0.000000 1.000000
vn 0.000000 0.000000 1.000000
vn 0.000000 0.000000 1.000000
vn 0.000000 0.000000 1.000000
vn 0.000000 0.000000 1.000000
vn 0.000000 0.000000 1.000000
vn 0.000000 0.000000 1.000000
vn 0.000000 0.000000 1.000000
vn 0.000000 0.000000 1.000000
vn 0.000000 0.000000 1.000000
vn 0.000000 0.000000 1.000000
vn 0.000000 0.000000 1.000000
vn 0.000000 0.000000 1.000000
vn 0.000000 0.000000 1.000000
vn 0.000000 0.000000 1.000000
vn 0.000000 0.000000 1.000000
vn 0.000000 0.000000 1.000000
vn 0.000000 0.000000 1.000000
vn 0.000000 0.000000 1.000000
vn 0.000000 0.000000 1.000000
vn 0.000000 0.000000 1.000000
vn 0.000000 0.000000 1.000000
vn 0.000000 0.000000 1.000000
vn 0.000000 0.000000 1.000000
vn 0.000000 0.000000 1.000000
vn 0.000000 0.000000 1.000000
vn 0.000000 0.000000 1.000000
vn 0.000000 0.000000 1.000000
vn 0.000000 0.000000 1.000000
vn 0.000000 0.000000 1.000000
vn 0.000000 0.000000 1.000000
vn 0.000000 0.000000 1.000000
vn 0.000000 0.000000 1.000000
vn 0.000000 0.000000 1.000000
vn 0.000000 0.000000 1.000000
vn 0.000000 0.000000 1.000000
vn 0.000000 0.000000 1.000000
vn 0.000000 0.000000 1.000000
vn 0.000000 0.000000 1.000000
vn 0.000000 0.000000 1.000000
vn 0.000000 0.000000 1.000000
vn 0.000000 0.000000 1.000000
vn 0.000000 0.000000 1.000000
vn 0.000000 0.000000 1.000000
vn 0.000000 0.000000 1.000000
vn 0.000000 0.000000 1.000000
vn 0.000000 0.000000 1.000000
vn 0.000000 0.000000 1.000000
vn 0.000000 0.000000 1.000000
vn 0.000000 0.000000 1.000000
vn 0.000000 0.000000 1.000000
vn 0.000000 0.000000 1.000000
vn 0.000000 0.000000 1.000000
vn 0.000000 0.000000 1.000000
vn 0.000000 0.000000 1.000000
vn 0.000000 0.000000 1.000000
vn 0.000000 0.000000 1.000000
vn 0.000000 0.000000 1.000000
vn 0.000000 0.000000 1.000000
vn 0.000000 0.000000 1.000000
vn 0.000000 0.000000 1.000000
vn 0.000000 0.000000 1.000000
s off
g chatbubble:Mesh
usemtl initialShadingGroup
f 1/1/1 2/2/2 13/3/3 12/4/4
f 2/2/5 3/5/6 14/6/7 13/3/8
f 3/5/9 4/7/10 15/8/11 14/6/12
f 4/7/13 5/9/14 16/10/15 15/8/16
f 5/9/17 6/11/18 17/12/19 16/10/20
f 6/11/21 7/13/22 18/14/23 17/12/24
f 7/13/25 8/15/26 19/16/27 18/14/28
f 8/15/29 9/17/30 20/18/31 19/16/32
f 9/17/33 10/19/34 21/20/35 20/18/36
f 10/19/37 11/21/38 21/20/39
f 12/4/40 13/3/41 23/22/42 22/23/43
f 13/3/44 14/6/45 24/24/46 23/22/47
f 14/6/48 15/8/49 25/25/50 24/24/51
f 15/8/52 16/10/53 26/26/54 25/25/55
f 16/10/56 17/12/57 27/27/58 26/26/59
f 17/12/60 18/14/61 28/28/62 27/27/63
f 18/14/64 19/16/65 29/29/66 28/28/67
f 19/16/68 20/18/69 30/30/70 29/29/71
f 20/18/72 21/20/73 31/31/74 30/30/75
f 21/20/76 11/21/77 32/32/78 31/31/79
f 22/23/80 23/22/81 34/33/82 33/34/83
f 23/22/84 24/24/85 35/35/86 34/33/87
f 24/24/88 25/25/89 36/36/90 35/35/91
f 25/25/92 26/26/93 37/37/94 36/36/95
f 26/26/96 27/27/97 38/38/98 37/37/99
f 27/27/100 28/28/101 39/39/102 38/38/103
f 28/28/104 29/29/105 40/40/106 39/39/107
f 29/29/108 30/30/109 41/41/110 40/40/111
f 30/30/112 31/31/113 42/42/114 41/41/115
f 31/31/116 32/32/117 43/43/118 42/42/119
f 33/34/120 34/33/121 45/44/122 44/45/123
f 34/33/124 35/35/125 46/46/126 45/44/127
f 35/35/128 36/36/129 47/47/130 46/46/131
f 36/36/132 37/37/133 48/48/134 47/47/135
f 37/37/136 38/38/137 49/49/138 48/48/139
f 38/38/140 39/39/141 50/50/142 49/49/143
f 39/39/144 40/40/145 51/51/146 50/50/147
f 40/40/148 41/41/149 52/52/150 51/51/151
f 41/41/152 42/42/153 53/53/154 52/52/155
f 42/42/156 43/43/157 54/54/158 53/53/159
f 44/45/160 45/44/161 56/55/162 55/56/163
f 45/44/164 46/46/165 57/57/166 56/55/167
f 46/46/168 47/47/169 58/58/170 57/57/171
f 47/47/172 48/48/173 59/59/174 58/58/175
f 48/48/176 49/49/177 60/60/178 59/59/179
f 49/49/180 50/50/181 61/61/182 60/60/183
f 50/50/184 51/51/185 62/62/186 61/61/187
f 51/51/188 52/52/189 63/63/190 62/62/191
f 52/52/192 53/53/193 64/64/194 63/63/195
f 53/53/196 54/54/197 65/65/198 64/64/199
f 55/56/200 56/55/201 67/66/202 66/67/203
f 56/55/204 57/57/205 68/68/206 67/66/207
f 57/57/208 58/58/209 69/69/210 68/68/211
f 58/58/212 59/59/213 70/70/214 69/69/215
f 59/59/216 60/60/217 71/71/218 70/70/219
f 60/60/220 61/61/221 72/72/222 71/71/223
f 61/61/224 62/62/225 73/73/226 72/72/227
f 62/62/228 63/63/229 74/74/230 73/73/231
f 63/63/232 64/64/233 75/75/234 74/74/235
f 64/64/236 65/65/237 76/76/238 75/75/239
f 66/67/240 67/66/241 78/77/242 77/78/243
f 67/66/244 68/68/245 79/79/246 78/77/247
f 68/68/248 69/69/249 80/80/250 79/79/251
f 69/69/252 70/70/253 81/81/254 80/80/255
f 70/70/256 71/71/257 82/82/258 81/81/259
f 71/71/260 72/72/261 83/83/262 82/82/263
f 72/72/264 73/73/265 84/84/266 83/83/267
f 73/73/268 74/74/269 85/85/270 84/84/271
f 74/74/272 75/75/273 86/86/274 85/85/275
f 75/75/276 76/76/277 87/87/278 86/86/279
f 77/78/280 78/77/281 89/88/282 88/89/283
f 78/77/284 79/79/285 90/90/286 89/88/287
f 79/79/288 80/80/289 91/91/290 90/90/291
f 80/80/292 81/81/293 92/92/294 91/91/295
f 81/81/296 82/82/297 93/93/298 92/92/299
f 82/82/300 83/83/301 94/94/302 93/93/303
f 83/83/304 84/84/305 95/95/306 94/94/307
f 84/84/308 85/85/309 96/96/310 95/95/311
f 85/85/312 86/86/313 97/97/314 96/96/315
f 86/86/316 87/87/317 98/98/318 97/97/319
f 88/89/320 89/88/321 100/99/322 99/100/323
f 89/88/324 90/90/325 101/101/326 100/99/327
f 90/90/328 91/91/329 102/102/330 101/101/331
f 91/91/332 92/92/333 103/103/334 102/102/335
f 92/92/336 93/93/337 104/104/338 103/103/339
f 93/93/340 94/94/341 105/105/342 104/104/343
f 94/94/344 95/95/345 106/106/346 105/105/347
f 95/95/348 96/96/349 107/107/350 106/106/351
f 96/96/352 97/97/353 108/108/354 107/107/355
f 97/97/356 98/98/357 109/109/358 108/108/359
f 99/100/360 100/99/361 110/110/362
f 100/99/363 101/101/364 111/111/365 110/110/366
f 101/101/367 102/102/368 112/112/369 111/111/370
f 102/102/371 103/103/372 113/113/373 112/112/374
f 103/103/375 104/104/376 114/114/377 113/113/378
f 104/104/379 105/105/380 115/115/381 114/114/382
f 105/105/383 106/106/384 116/116/385 115/115/386
f 106/106/387 107/107/388 117/117/389 116/116/390
f 107/107/391 108/108/392 118/118/393 117/117/394
f 108/108/395 109/109/396 118/118/397
