# This file uses centimeters as units for non-parametric coordinates.

v 0.022052 2.011800 -1.981332
v 0.052618 0.013023 -2.809253
v 0.052618 -1.985756 -1.981332
v 0.052618 -2.813678 0.017447
v 0.052618 -1.985756 2.016226
v 0.052618 0.013023 2.844147
v 0.052618 2.011800 2.016226
v 0.022052 2.839722 0.017447
v -0.143127 2.011800 -1.981332
v -0.173692 0.013023 -2.809253
v -0.173692 -1.985756 -1.981332
v -0.173692 -2.813678 0.017447
v -0.173692 -1.985756 2.016226
v -0.173692 0.013023 2.844147
v -0.173692 2.011800 2.016226
v -0.143127 2.839722 0.017447
v 0.052618 0.013023 0.017447
v -0.173692 0.013023 0.017447
vt 0.304373 0.718666
vt 0.187842 0.437336
vt 0.187842 0.437336
vt 0.304373 0.718666
vt 0.304373 0.156006
vt 0.304373 0.156006
vt 0.585702 0.039476
vt 0.585702 0.039476
vt 0.867032 0.156006
vt 0.867032 0.156006
vt 0.983563 0.437336
vt 0.983563 0.437336
vt 0.867032 0.718666
vt 0.867032 0.718666
vt 0.585702 0.835197
vt 0.585702 0.835197
vt 0.585702 0.437336
vt 0.585702 0.437336
vn 0.000000 0.382684 -0.923880
vn 0.000000 0.382684 -0.923880
vn 0.000000 0.382684 -0.923880
vn 0.000000 0.382684 -0.923880
vn 0.000000 -0.382683 -0.923880
vn 0.000000 -0.382683 -0.923880
vn 0.000000 -0.382683 -0.923880
vn 0.000000 -0.382683 -0.923880
vn 0.000000 -0.923880 -0.382684
vn 0.000000 -0.923880 -0.382684
vn 0.000000 -0.923880 -0.382684
vn 0.000000 -0.923880 -0.382684
vn 0.000000 -0.923880 0.382684
vn 0.000000 -0.923880 0.382684
vn 0.000000 -0.923880 0.382684
vn 0.000000 -0.923880 0.382684
vn 0.000000 -0.382683 0.923880
vn 0.000000 -0.382683 0.923880
vn 0.000000 -0.382683 0.923880
vn 0.000000 -0.382683 0.923880
vn 0.000000 0.382684 0.923880
vn 0.000000 0.382684 0.923880
vn 0.000000 0.382684 0.923880
vn 0.000000 0.382684 0.923880
vn 0.000000 0.923880 0.382684
vn 0.000000 0.923879 0.382684
vn 0.000000 0.923879 0.382684
vn 0.000000 0.923880 0.382684
vn 0.000000 0.923879 -0.382684
vn 0.000000 0.923879 -0.382684
vn 0.000000 0.923879 -0.382684
vn 0.000000 0.923879 -0.382684
vn 0.999971 0.007646 0.000000
vn 0.999912 0.013051 -0.002239
vn 0.999988 0.004615 -0.001912
vn 1.000000 0.000000 0.000000
vn 1.000000 0.000000 0.000000
vn 1.000000 0.000000 0.000000
vn 1.000000 0.000000 0.000000
vn 0.999971 0.005406 -0.005406
vn 0.999912 0.010812 -0.007645
vn -0.999912 0.013051 -0.002239
vn -0.999971 0.007646 0.000000
vn -0.999988 0.004615 -0.001912
vn -1.000000 0.000000 0.000000
vn -1.000000 0.000000 0.000000
vn -1.000000 0.000000 0.000000
vn -1.000000 0.000000 0.000000
vn -0.999971 0.005406 -0.005406
vn -0.999912 0.010812 -0.007645
f 1/1/1 2/2/2 10/3/3 9/4/4
f 2/2/5 3/5/6 11/6/7 10/3/8
f 3/5/9 4/7/10 12/8/11 11/6/12
f 4/7/13 5/9/14 13/10/15 12/8/16
f 5/9/17 6/11/18 14/12/19 13/10/20
f 6/11/21 7/13/22 15/14/23 14/12/24
f 7/13/25 8/15/26 16/16/27 15/14/28
f 8/15/29 1/1/30 9/4/31 16/16/32
f 2/2/33 1/1/34 17/17/35
f 3/5/36 2/2/33 17/17/35
f 4/7/37 3/5/36 17/17/35
f 5/9/38 4/7/37 17/17/35
f 6/11/39 5/9/38 17/17/35
f 7/13/40 6/11/39 17/17/35
f 8/15/41 7/13/40 17/17/35
f 1/1/34 8/15/41 17/17/35
f 9/4/42 10/3/43 18/18/44
f 10/3/43 11/6/45 18/18/44
f 11/6/45 12/8/46 18/18/44
f 12/8/46 13/10/47 18/18/44
f 13/10/47 14/12/48 18/18/44
f 14/12/48 15/14/49 18/18/44
f 15/14/49 16/16/50 18/18/44
f 16/16/50 9/4/42 18/18/44
