# This file uses centimeters as units for non-parametric coordinates.

v 0.094034 6.329455 -1.181057
v 0.094034 5.660439 -2.182311
v 0.094034 4.659187 -2.851327
v 0.094034 3.478128 -3.086255
v 0.094034 2.297069 -2.851329
v 0.094034 1.295815 -2.182313
v 0.094034 0.626799 -1.181060
v 0.094034 0.391871 -0.000001
v 0.094034 0.626798 1.181058
v 0.094034 1.295814 2.182312
v 0.094034 2.297067 2.851328
v 0.094034 3.478126 3.086255
v 0.094034 4.659185 2.851328
v 0.094034 5.660439 2.182312
v 0.094034 6.329454 1.181059
v 0.094034 6.564382 0.000000
v -0.094034 6.329455 -1.181057
v -0.094034 5.660439 -2.182311
v -0.094034 4.659187 -2.851327
v -0.094034 3.478128 -3.086255
v -0.094034 2.297069 -2.851329
v -0.094034 1.295815 -2.182313
v -0.094034 0.626799 -1.181060
v -0.094034 0.391871 -0.000001
v -0.094034 0.626798 1.181058
v -0.094034 1.295814 2.182312
v -0.094034 2.297067 2.851328
v -0.094034 3.478126 3.086255
v -0.094034 4.659185 2.851328
v -0.094034 5.660439 2.182312
v -0.094034 6.329454 1.181059
v 0.094034 3.478127 0.000000
v -0.094034 3.478127 0.000000
v 0.094034 0.626798 1.181058
v 0.094034 1.295814 2.182312
v -0.094034 1.295814 2.182312
v -0.094034 0.626798 1.181058
v 0.094034 2.297067 2.851328
v -0.094034 2.297067 2.851328
v 0.094034 -1.214641 -1.181060
v 0.094034 -1.449568 -0.000001
v -0.094034 -1.449568 -0.000001
v -0.094034 -1.214641 -1.181060
v 0.094034 -1.214642 1.181058
v -0.094034 -1.214642 1.181058
v -0.094034 -0.686358 -0.000001
v -0.094034 -0.451431 1.181058
v 0.094034 -0.451431 1.181058
v 0.094034 -0.686358 -0.000001
v 0.094034 -0.451431 -1.181060
v -0.094034 -0.451431 -1.181060
v -1.324887 -0.686358 -0.000001
v -1.324887 -0.451431 1.181058
v -1.324887 -1.449568 -0.000001
v -1.324887 -1.214642 1.181058
v -1.324887 -0.451431 -1.181060
v -1.324887 -1.214641 -1.181060
v 1.293601 -0.451431 1.181058
v 1.293601 -0.686358 -0.000001
v 1.293601 -1.214642 1.181058
v 1.293601 -1.449568 -0.000001
v 1.293601 -0.451431 -1.181060
v 1.293601 -1.214641 -1.181060
v 0.094034 6.544371 -0.100602
v -0.094034 6.544363 -0.100602
v 0.094034 6.568782 0.095860
v -0.094034 6.568782 0.095860
v -0.094034 6.641182 0.086861
v 0.094034 6.641182 0.086861
v 0.094034 6.636774 -0.008999
v 0.094034 6.616763 -0.109601
v -0.094034 6.616763 -0.109601
v -0.094034 6.628754 -0.049318
v -0.094034 6.556354 -0.040320
v -0.094034 6.638629 0.031344
v -0.094034 6.566228 0.040342
v -0.199396 6.628754 -0.049318
v -0.199396 6.638629 0.031344
v -0.158978 6.556354 -0.040320
v -0.158978 6.628754 -0.049318
v -0.158978 6.638629 0.031344
v -0.158978 6.566228 0.040342
v -0.158978 6.561291 0.000011
v -0.158978 5.116189 -0.040320
v -0.158978 5.121127 0.000011
v -0.158978 5.126064 0.040342
v -0.199396 6.547845 -0.024051
v -0.199396 6.568822 -0.041869
v -0.183122 6.556354 -0.040320
v -0.199396 6.552501 0.001445
v -0.199396 6.553910 0.024024
v -0.183157 6.566228 0.040342
v -0.199396 6.578675 0.038795
v -0.199396 5.136742 -0.023453
v -0.182528 5.116189 -0.040320
v -0.199396 5.140402 -0.001971
v -0.183176 5.122991 0.000149
v -0.182528 5.126064 0.040342
v -0.199396 5.142174 0.023475
vt 0.219330 0.936128
vt 0.266547 0.912058
vt 0.266547 0.912058
vt 0.219330 0.936128
vt 0.298097 0.876036
vt 0.298097 0.876036
vt 0.309176 0.833544
vt 0.309176 0.833544
vt 0.298097 0.791052
vt 0.298097 0.791052
vt 0.266547 0.755029
vt 0.266547 0.755029
vt 0.219330 0.730959
vt 0.219330 0.730959
vt 0.219330 0.664709
vt 0.163633 0.656256
vt 0.163633 0.656256
vt 0.219330 0.664709
vt 0.107936 0.664708
vt 0.107936 0.664708
vt 0.107936 0.730959
vt 0.060718 0.755029
vt 0.060718 0.755029
vt 0.107936 0.730959
vt 0.029168 0.791052
vt 0.029168 0.791052
vt 0.029168 0.791052
vt 0.018089 0.833544
vt 0.018089 0.833544
vt 0.029168 0.791052
vt 0.029168 0.876036
vt 0.029168 0.876036
vt 0.060718 0.912058
vt 0.060718 0.912058
vt 0.107935 0.936128
vt 0.107935 0.936128
vt 0.159112 0.944739
vt 0.159112 0.944739
vt 0.163633 0.833544
vt 0.163633 0.722507
vt 0.107936 0.730959
vt 0.060718 0.755029
vt 0.163633 0.944580
vt 0.168377 0.943860
vt 0.163633 0.833544
vt 0.163633 0.722507
vt 0.107936 0.730959
vt 0.060718 0.755029
vt 0.161730 0.944647
vt 0.165534 0.944292
vt 0.168377 0.943860
vt 0.163633 0.683715
vt 0.219330 0.692167
vt 0.219330 0.692167
vt 0.163633 0.683715
vt 0.107936 0.692167
vt 0.107936 0.692167
vt 0.107936 0.692167
vt 0.163633 0.683715
vt 0.163633 0.656256
vt 0.107936 0.664708
vt 0.163633 0.683715
vt 0.107936 0.692167
vt 0.107936 0.664708
vt 0.163633 0.656256
vt 0.219330 0.692167
vt 0.219330 0.664709
vt 0.219330 0.692167
vt 0.219330 0.664709
vt 0.162154 0.947252
vt 0.159536 0.947344
vt 0.159536 0.947344
vt 0.164057 0.947185
vt 0.168801 0.946465
vt 0.168801 0.946465
vt 0.165958 0.946896
vt 0.165958 0.946896
vt 0.165534 0.944292
vt 0.161730 0.944647
vt 0.163632 0.944469
vt 0.162154 0.947252
vt 0.165534 0.944292
vt 0.165607 0.944740
vt 0.165958 0.946896
vt 0.162154 0.947252
vt 0.161803 0.945095
vt 0.161730 0.944647
vt 0.163632 0.892655
vt 0.165534 0.892478
vt 0.161730 0.892833
vt 0.164767 0.943985
vt 0.165534 0.892478
vt 0.164739 0.893217
vt 0.163564 0.944153
vt 0.162500 0.944204
vt 0.162526 0.893413
vt 0.161730 0.892833
vt 0.163626 0.892722
vt 0.163726 0.893349
vn -0.000010 0.920458 -0.390842
vn 0.000000 0.707107 -0.707106
vn 0.000000 0.707107 -0.707106
vn -0.000010 0.920458 -0.390842
vn 0.000000 0.382684 -0.923879
vn 0.000000 0.382684 -0.923879
vn 0.000000 0.000001 -1.000000
vn 0.000000 0.000001 -1.000000
vn 0.000000 -0.382683 -0.923880
vn 0.000000 -0.382683 -0.923880
vn 0.000000 -0.707106 -0.707107
vn 0.000000 -0.707106 -0.707107
vn 0.000000 -0.831469 -0.555571
vn 0.000000 -0.831469 -0.555571
vn 0.000000 -0.980785 -0.195091
vn 0.000000 -1.000000 -0.000000
vn 0.000000 -1.000000 -0.000000
vn 0.000000 -0.980785 -0.195091
vn 0.000000 -0.980785 0.195090
vn 0.000000 -0.980785 0.195090
vn 0.000000 -0.831470 0.555570
vn 0.000000 -0.707107 0.707106
vn 0.000000 -0.707107 0.707106
vn 0.000000 -0.831470 0.555570
vn 0.000000 -0.555570 0.831469
vn 0.000000 -0.555570 0.831469
vn 0.000000 -0.195090 0.980785
vn 0.000000 -0.000000 1.000000
vn 0.000000 -0.000000 1.000000
vn 0.000000 -0.195090 0.980785
vn 0.000000 0.382683 0.923880
vn 0.000000 0.382683 0.923880
vn 0.000000 0.707107 0.707107
vn 0.000000 0.707107 0.707107
vn 0.000000 0.916879 0.399166
vn 0.000000 0.916879 0.399166
vn 0.000000 0.976534 0.215362
vn 0.000000 0.976534 0.215362
vn 1.000000 0.000000 0.000000
vn 1.000000 0.000000 0.000000
vn 1.000000 -0.000000 0.000000
vn 1.000000 0.000000 0.000000
vn 1.000000 0.000000 0.000000
vn 1.000000 0.000000 0.000000
vn 1.000000 0.000000 0.000000
vn 1.000000 -0.000000 0.000000
vn 1.000000 -0.000000 0.000000
vn 1.000000 0.000000 0.000000
vn 1.000000 0.000000 0.000000
vn 1.000000 -0.000000 0.000000
vn 1.000000 -0.000000 0.000000
vn 1.000000 0.000000 0.000000
vn 1.000000 0.000000 0.000000
vn 1.000000 -0.000000 0.000000
vn 1.000000 -0.000000 0.000000
vn 1.000000 -0.000000 0.000000
vn 1.000000 -0.000000 0.000000
vn -1.000000 0.000000 0.000000
vn -1.000000 0.000000 0.000000
vn -1.000000 -0.000000 0.000000
vn -1.000000 0.000000 0.000000
vn -1.000000 0.000000 0.000000
vn -1.000000 0.000000 0.000000
vn -1.000000 0.000000 0.000000
vn -1.000000 0.000000 0.000000
vn -1.000000 0.000000 0.000000
vn -1.000000 0.000000 0.000000
vn -1.000000 0.000000 0.000000
vn -1.000000 -0.000000 0.000000
vn -1.000000 -0.000000 0.000000
vn -1.000000 0.000000 0.000000
vn -1.000000 0.000000 0.000000
vn -1.000000 -0.000000 0.000000
vn -1.000000 -0.000000 0.000000
vn -1.000000 -0.000000 0.000000
vn -1.000000 -0.000000 0.000000
vn -1.000000 -0.000000 0.000000
vn 0.000000 0.000000 0.000000
vn 0.000000 0.000000 0.000000
vn 0.000000 0.000000 0.000000
vn 0.000000 0.000000 0.000000
vn 0.000000 0.000000 0.000000
vn 0.000000 0.000000 0.000000
vn 0.000000 0.000000 0.000000
vn 0.000000 0.000000 0.000000
vn 0.000000 0.000000 0.000000
vn 0.000000 0.000000 0.000000
vn 0.000000 0.000000 0.000000
vn 0.000000 0.000000 0.000000
vn 0.000000 0.000000 0.000000
vn 0.000000 0.000000 0.000000
vn 0.000000 0.000000 0.000000
vn 0.000000 0.000000 0.000000
vn 0.000000 0.000000 0.000000
vn 0.000000 0.000000 0.000000
vn 0.000000 0.000000 0.000000
vn 0.000000 0.000000 0.000000
vn 0.000000 0.000000 0.000000
vn 0.000000 0.000000 0.000000
vn 0.000000 0.000000 0.000000
vn 0.000000 0.000000 0.000000
vn 1.000000 0.000000 0.000000
vn 1.000000 0.000000 0.000000
vn -1.000000 0.000000 0.000000
vn -1.000000 0.000000 0.000000
vn 0.000000 0.000000 -1.000000
vn 0.000000 0.000000 -1.000000
vn 0.000000 0.000000 -1.000000
vn 0.000000 0.000000 -1.000000
vn 1.000000 0.000000 0.000000
vn 0.000000 0.000000 1.000000
vn 0.000000 0.000000 1.000000
vn 0.000000 0.000000 1.000000
vn 0.000000 0.000000 1.000000
vn -1.000000 0.000000 0.000000
vn -1.000000 0.000000 0.000000
vn -1.000000 0.000000 0.000000
vn -1.000000 0.000000 0.000000
vn -1.000000 0.000000 0.000000
vn 0.000000 0.000000 1.000000
vn 0.000000 0.000000 1.000000
vn 1.000000 0.000000 0.000000
vn 1.000000 0.000000 0.000000
vn 1.000000 0.000000 0.000000
vn 1.000000 0.000000 0.000000
vn 1.000000 0.000000 0.000000
vn 1.000000 0.000000 0.000000
vn 0.000000 0.000000 -1.000000
vn 0.000000 0.000000 -1.000000
vn -1.000000 0.000000 0.000000
vn -1.000000 0.000000 0.000000
vn 0.000000 0.980785 -0.195091
vn 0.000000 1.000000 -0.000000
vn 0.000000 1.000000 -0.000000
vn 0.000000 0.980785 -0.195091
vn 0.000000 -0.980785 0.195090
vn 0.000000 -1.000000 -0.000000
vn 0.000000 0.000000 1.000000
vn 0.000000 0.000000 1.000000
vn 0.000000 0.980785 0.195091
vn 0.000000 0.980785 0.195091
vn 0.000000 0.000000 -1.000000
vn 0.000000 0.000000 -1.000000
vn 0.000000 -0.980785 -0.195091
vn 0.000000 1.000000 0.000000
vn 0.000000 0.980785 -0.195091
vn 0.000000 0.980785 -0.195091
vn 0.000000 1.000000 0.000000
vn 0.000000 0.000000 1.000000
vn 0.000000 0.000000 1.000000
vn 0.000000 -1.000000 -0.000000
vn 0.000000 -0.980785 0.195090
vn 0.000000 0.980785 0.195091
vn 0.000000 0.980785 0.195091
vn 0.000000 -0.980785 -0.195091
vn 0.000000 0.000000 -1.000000
vn 0.000000 0.000000 -1.000000
vn -0.000020 0.980786 -0.195087
vn -0.000020 0.980786 -0.195087
vn -0.003115 0.992375 -0.123219
vn -0.003114 0.992375 -0.123219
vn -0.003341 0.992359 -0.123343
vn -0.003341 0.992359 -0.123343
vn -0.003341 0.992359 -0.123343
vn -0.003341 0.992359 -0.123343
vn -0.003341 0.992359 -0.123343
vn -1.000000 0.000000 0.000000
vn -1.000000 0.000000 0.000000
vn -0.000000 0.123343 0.992364
vn -0.000000 0.123343 0.992364
vn -0.000000 0.123343 0.992364
vn -0.000000 0.123343 0.992364
vn 1.000000 -0.000000 0.000000
vn 1.000000 0.000000 0.000000
vn 1.000000 -0.000000 0.000000
vn 0.000003 -0.123349 -0.992363
vn 0.000003 -0.123349 -0.992363
vn 0.000003 -0.123350 -0.992363
vn 0.000003 -0.123350 -0.992363
vn -1.000000 0.000000 0.000000
vn -1.000000 0.000000 0.000000
vn 0.000000 -0.123342 -0.992364
vn 0.000000 -0.123342 -0.992364
vn 0.000000 -0.022338 -0.999750
vn 0.000000 -0.123343 -0.992364
vn -0.000002 -0.992589 0.121516
vn -0.000002 -0.992589 0.121516
vn -0.000002 -0.992589 0.121516
vn -0.000002 -0.992589 0.121516
vn -0.000002 -0.992589 0.121516
vn 0.000000 0.123343 0.992364
vn 0.000000 0.123343 0.992364
vn -0.000000 0.123343 0.992364
vn -0.000000 0.022325 0.999751
vn 0.000000 0.992590 -0.121512
vn 0.000000 0.992590 -0.121512
vn 0.000000 -0.014308 -0.999898
vn 0.000000 -0.123343 -0.992364
vn 0.000000 -0.123343 -0.992364
vn 0.000000 0.992590 -0.121514
vn 0.000000 0.992590 -0.121514
vn -0.000001 0.123343 0.992364
vn -0.000001 0.123343 0.992364
vn -0.000000 0.014300 0.999898
vn 1.000000 0.000000 0.000000
vn 1.000000 0.000000 0.000000
vn 1.000000 0.000000 0.000000
vn 1.000000 0.000000 0.000000
vn 1.000000 0.000000 0.000000
vn 1.000000 0.000000 0.000000
vn -0.707101 -0.000296 -0.707112
vn -0.707101 -0.000296 -0.707112
vn -0.707101 -0.000296 -0.707112
vn -0.707101 -0.000296 -0.707112
vn -0.999400 -0.022416 -0.026391
vn -0.989651 -0.092897 -0.109370
vn -0.999968 -0.005195 -0.006116
vn -0.999980 -0.004130 -0.004863
vn -0.999960 -0.005777 -0.006802
vn -0.999749 -0.014505 -0.017077
vn -0.707977 -0.000292 0.706235
vn -0.707977 -0.000292 0.706235
vn -0.707977 -0.000292 0.706235
vn -0.707977 -0.000292 0.706235
vn -0.728698 -0.676485 0.106618
vn -0.728698 -0.676485 0.106618
vn -0.727884 -0.680823 0.081637
vn -0.727885 -0.680819 0.081660
vn -0.726668 -0.684561 0.057704
vn -0.726668 -0.684561 0.057704
vn -1.000000 0.000000 0.000000
vn -1.000000 0.000000 0.000000
vn -0.038360 -0.991859 0.121426
vn -0.038360 -0.991859 0.121426
vn -0.038360 -0.991859 0.121426
vn -0.038360 -0.991859 0.121426
vn -0.038360 -0.991859 0.121426
vn -0.038360 -0.991859 0.121426
vn -1.000000 -0.000000 0.000000
vn -1.000000 -0.000000 0.000000
vn 0.000000 0.000000 -1.000000
vn 0.000000 0.000000 -1.000000
vn 0.000000 0.000000 1.000000
vn 0.000000 0.000000 1.000000
vn -1.000000 0.000000 0.000000
vn -0.428659 -0.462805 0.775927
vn -0.428659 -0.462805 0.775927
vn -0.428659 -0.462805 0.775927
f 1/1/1 2/2/2 18/3/3 17/4/4
f 2/2/2 3/5/5 19/6/6 18/3/3
f 3/5/5 4/7/7 20/8/8 19/6/6
f 4/7/7 5/9/9 21/10/10 20/8/8
f 5/9/9 6/11/11 22/12/12 21/10/10
f 6/11/11 7/13/13 23/14/14 22/12/12
f 40/15/15 41/16/16 42/17/17 43/18/18
f 41/16/16 44/19/19 45/20/20 42/17/17
f 34/21/21 35/22/22 36/23/23 37/24/24
f 35/22/22 38/25/25 39/26/26 36/23/23
f 11/27/27 12/28/28 28/29/29 27/30/30
f 12/28/28 13/31/31 29/32/32 28/29/29
f 13/31/31 14/33/33 30/34/34 29/32/32
f 14/33/33 15/35/35 31/36/36 30/34/34
f 15/35/35 66/37/37 67/38/38 31/36/36
f 2/2/39 1/1/40 32/39/41
f 3/5/42 2/2/39 32/39/41
f 4/7/43 3/5/42 32/39/41
f 5/9/44 4/7/43 32/39/41
f 6/11/45 5/9/44 32/39/41
f 7/13/46 6/11/45 32/39/41
f 8/40/47 7/13/46 32/39/41
f 9/41/48 8/40/47 32/39/41
f 10/42/49 9/41/48 32/39/41
f 11/27/50 10/42/49 32/39/41
f 12/28/51 11/27/50 32/39/41
f 13/31/52 12/28/51 32/39/41
f 14/33/53 13/31/52 32/39/41
f 15/35/54 14/33/53 32/39/41
f 16/43/55 66/37/56 15/35/54 32/39/41
f 1/1/40 64/44/57 16/43/55 32/39/41
f 17/4/58 18/3/59 33/45/60
f 18/3/59 19/6/61 33/45/60
f 19/6/61 20/8/62 33/45/60
f 20/8/62 21/10/63 33/45/60
f 21/10/63 22/12/64 33/45/60
f 22/12/64 23/14/65 33/45/60
f 23/14/65 24/46/66 33/45/60
f 24/46/66 25/47/67 33/45/60
f 25/47/67 26/48/68 33/45/60
f 26/48/68 27/30/69 33/45/60
f 27/30/69 28/29/70 33/45/60
f 28/29/70 29/32/71 33/45/60
f 29/32/71 30/34/72 33/45/60
f 30/34/72 31/36/73 33/45/60
f 17/4/58 33/45/60 31/36/73 67/38/74 76/49/75 74/50/76 65/51/77
f 9/41/78 10/42/79 35/22/80 34/21/81
f 26/48/82 25/47/83 37/24/84 36/23/85
f 25/47/86 9/41/87 34/21/88 37/24/89
f 10/42/90 11/27/91 38/25/92 35/22/93
f 11/27/94 27/30/95 39/26/96 38/25/97
f 27/30/98 26/48/99 36/23/100 39/26/101
f 7/13/46 8/40/47 49/52/102 50/53/103
f 24/46/66 23/14/65 51/54/104 46/55/105
f 23/14/106 7/13/107 50/53/108 51/54/109
f 8/40/47 9/41/48 48/56/110 49/52/102
f 9/41/111 25/47/112 47/57/113 48/56/114
f 25/47/67 24/46/66 46/55/105 47/57/115
f 53/58/116 52/59/117 54/60/118 55/61/119
f 48/56/114 47/57/113 45/20/120 44/19/121
f 59/62/122 58/63/123 60/64/124 61/65/125
f 62/66/126 59/62/122 61/65/125 63/67/127
f 51/54/109 50/53/108 40/15/128 43/18/129
f 52/59/117 56/68/130 57/69/131 54/60/118
f 47/57/132 46/55/133 52/59/134 53/58/135
f 42/17/17 45/20/20 55/61/136 54/60/137
f 45/20/120 47/57/113 53/58/138 55/61/139
f 46/55/133 51/54/140 56/68/141 52/59/134
f 51/54/109 43/18/129 57/69/142 56/68/143
f 43/18/18 42/17/17 54/60/137 57/69/144
f 49/52/145 48/56/146 58/63/147 59/62/148
f 48/56/114 44/19/121 60/64/149 58/63/150
f 44/19/19 41/16/16 61/65/151 60/64/152
f 50/53/153 49/52/145 59/62/148 62/66/154
f 41/16/16 40/15/15 63/67/155 61/65/151
f 40/15/128 50/53/108 62/66/156 63/67/157
f 64/44/158 1/1/1 17/4/4 65/51/159
f 73/76/160 75/70/161 68/71/162 69/72/163 70/73/164 71/74/165 72/75/166
f 76/49/75 67/38/74 68/71/167 75/70/168
f 67/38/169 66/37/170 69/72/171 68/71/172
f 66/37/56 16/43/55 70/73/173 69/72/174
f 16/43/55 64/44/57 71/74/175 70/73/173
f 64/44/176 65/51/177 72/75/178 71/74/179
f 65/51/77 74/50/76 73/76/180 72/75/181
f 73/76/182 74/50/183 79/78/184 80/77/185
f 74/50/186 76/49/187 82/79/188 83/80/189 79/78/190
f 76/49/191 75/70/192 81/81/193 82/79/194
f 80/77/195 81/81/196 75/70/161 73/76/160
f 80/77/185 79/78/184 89/82/197 88/83/198 77/84/199
f 77/84/200 78/85/201 81/81/196 80/77/195
f 82/79/194 81/81/193 78/85/202 93/86/203 92/87/204
f 79/78/205 83/80/206 85/88/207 84/89/208
f 83/80/206 82/79/209 86/90/210 85/88/207
f 87/91/211 89/82/212 95/92/213 94/93/214
f 88/83/215 89/82/216 87/91/217 90/94/218 91/95/219 93/86/220
f 92/87/221 91/95/222 99/96/223 98/97/224
f 94/93/225 95/92/226 97/98/227 96/99/228
f 96/99/228 97/98/227 98/97/229 99/96/230
f 77/84/231 88/83/215 93/86/220 78/85/232
f 97/98/233 95/92/234 84/89/235 85/88/236 86/90/237 98/97/238
f 90/94/218 87/91/217 94/93/239 96/99/240
f 95/92/241 89/82/197 79/78/184 84/89/242
f 82/79/194 92/87/204 98/97/243 86/90/244
f 99/96/245 91/95/219 90/94/218 96/99/240
f 91/95/246 92/87/247 93/86/248
