# This file uses centimeters as units for non-parametric coordinates.

mtllib Man1Body.mtl
g default
v 1.176180 -4.536978 -0.382164
v 1.000519 -4.536978 -0.726919
v 0.726919 -4.536978 -1.000519
v 0.382164 -4.536978 -1.176180
v 0.000000 -4.536978 -1.236709
v -0.382164 -4.536978 -1.176180
v -0.726919 -4.536978 -1.000519
v -1.000519 -4.536978 -0.726919
v -1.176180 -4.536978 -0.382164
v -1.236709 -4.536978 0.000000
v -1.176180 -4.536978 0.382164
v -1.000518 -4.536978 0.726919
v -0.726919 -4.536978 1.000518
v -0.382164 -4.536978 1.176180
v 0.000000 -4.536978 1.236709
v 0.382164 -4.536978 1.176180
v 0.726919 -4.536978 1.000518
v 1.000518 -4.536978 0.726919
v 1.176180 -4.536978 0.382164
v 1.236709 -4.536978 0.000000
v 1.176180 1.065882 -0.382164
v 1.000519 1.065882 -0.726919
v 0.726919 1.065882 -1.000519
v 0.382164 1.065882 -1.176180
v 0.000000 1.065882 -1.236709
v -0.382164 1.065882 -1.176180
v -0.726919 1.065882 -1.000519
v -1.000519 1.065882 -0.726919
v -1.176180 1.065882 -0.382164
v -1.236709 1.065882 0.000000
v -1.176180 1.065882 0.382164
v -1.000518 1.065882 0.726919
v -0.726919 1.065882 1.000518
v -0.382164 1.065882 1.176180
v 0.000000 1.065882 1.236709
v 0.382164 1.065882 1.176180
v 0.726919 1.065882 1.000518
v 1.000518 1.065882 0.726919
v 1.176180 1.065882 0.382164
v 1.236709 1.065882 0.000000
v 0.000000 -4.536978 0.000000
v 0.000000 1.065882 0.000000
v -0.726919 -1.541737 1.000518
v -1.000518 -1.541737 0.726919
v -1.176180 -1.541737 0.382164
v -1.236709 -1.541737 0.000000
v -1.176180 -1.541737 -0.382164
v -1.000519 -1.541737 -0.726919
v -0.726919 -1.541737 -1.000519
v -0.382164 -1.541737 -1.176180
v 0.000000 -1.541737 -1.236709
v 0.382164 -1.541737 -1.176180
v 0.726919 -1.541737 -1.000519
v 1.000519 -1.541737 -0.726919
v 1.176180 -1.541737 -0.382164
v 1.236709 -1.541737 0.000000
v 1.176180 -1.541737 0.382164
v 1.000518 -1.541737 0.726919
v 0.726919 -1.541737 1.000518
v 0.382164 -1.541737 1.176180
v 0.000000 -1.541737 1.236709
v -0.382164 -1.541737 1.176180
vt 0.304369 0.097520
vt 0.303258 0.097520
vt 0.303258 0.086068
vt 0.304369 0.086068
vt 0.302376 0.097520
vt 0.302376 0.086068
vt 0.286206 0.092576
vt 0.285292 0.092576
vt 0.285292 0.084628
vt 0.286206 0.084628
vt 0.284277 0.092576
vt 0.284277 0.084628
vt 0.283263 0.092576
vt 0.283263 0.084628
vt 0.282349 0.092576
vt 0.282349 0.084628
vt 0.300578 0.097464
vt 0.299614 0.097464
vt 0.299614 0.086086
vt 0.300578 0.086086
vt 0.298401 0.097464
vt 0.298401 0.086086
vt 0.297056 0.097464
vt 0.297056 0.086086
vt 0.295711 0.097464
vt 0.295711 0.086086
vt 0.294497 0.097464
vt 0.294497 0.086086
vt 0.326428 0.115494
vt 0.324031 0.115494
vt 0.324031 0.098074
vt 0.326428 0.098074
vt 0.323995 0.115454
vt 0.319332 0.115454
vt 0.319332 0.098103
vt 0.323995 0.098103
vt 0.314165 0.115454
vt 0.314165 0.098103
vt 0.308996 0.115454
vt 0.308996 0.098103
vt 0.304334 0.115454
vt 0.304334 0.098103
vt 0.308824 0.097520
vt 0.307942 0.097520
vt 0.307942 0.086068
vt 0.308824 0.086068
vt 0.306831 0.097520
vt 0.306831 0.086068
vt 0.305600 0.097520
vt 0.305600 0.086068
vt 0.329102 0.144079
vt 0.332920 0.151571
vt 0.307361 0.158800
vt 0.323157 0.138133
vt 0.315665 0.134316
vt 0.307361 0.133001
vt 0.299056 0.134316
vt 0.291564 0.138133
vt 0.285619 0.144079
vt 0.281802 0.151571
vt 0.280486 0.159875
vt 0.281802 0.168180
vt 0.285619 0.175671
vt 0.291564 0.181617
vt 0.299056 0.185434
vt 0.307361 0.186750
vt 0.315665 0.185434
vt 0.323157 0.181617
vt 0.329102 0.175671
vt 0.332920 0.168180
vt 0.334235 0.159875
vt 0.332920 0.168422
vt 0.329102 0.175914
vt 0.307361 0.159043
vt 0.323157 0.181859
vt 0.315665 0.185677
vt 0.307361 0.186992
vt 0.299056 0.185677
vt 0.291564 0.181859
vt 0.285619 0.175914
vt 0.281802 0.168422
vt 0.280486 0.160118
vt 0.281802 0.151813
vt 0.285619 0.144321
vt 0.291564 0.138376
vt 0.299056 0.134559
vt 0.307361 0.133243
vt 0.315665 0.134559
vt 0.323157 0.138376
vt 0.329102 0.144321
vt 0.332920 0.151813
vt 0.334235 0.160118
vt 0.996989 0.724089
vt 0.988239 0.724089
vt 0.988239 0.597702
vt 0.996989 0.597702
vt 0.294497 0.076179
vt 0.295711 0.076179
vt 0.297056 0.076179
vt 0.298401 0.076179
vt 0.299614 0.076179
vt 0.300578 0.076179
vt 0.282349 0.077709
vt 0.283263 0.077709
vt 0.284277 0.077709
vt 0.285292 0.077709
vt 0.286206 0.077709
vt 0.302376 0.076098
vt 0.303258 0.076098
vt 0.304369 0.076098
vt 0.305600 0.076098
vt 0.306831 0.076098
vt 0.307942 0.076098
vt 0.308824 0.076098
vt 0.933349 0.724334
vt 0.916328 0.724334
vt 0.916328 0.598452
vt 0.933349 0.598452
vt 0.952217 0.724334
vt 0.952217 0.598452
vt 0.971085 0.724334
vt 0.971085 0.598452
vt 0.988106 0.724334
vt 0.988106 0.598452
vn 0.951057 0.000000 -0.309016
vn 0.809017 0.000000 -0.587785
vn 0.891007 0.000000 -0.453990
vn 0.891007 0.000000 -0.453990
vn 0.809017 0.000000 -0.587785
vn 0.587785 0.000000 -0.809017
vn 0.707107 0.000000 -0.707107
vn 0.707107 0.000000 -0.707107
vn 0.587785 0.000000 -0.809017
vn 0.309017 0.000000 -0.951057
vn 0.453990 0.000000 -0.891007
vn 0.453990 0.000000 -0.891007
vn 0.309017 0.000000 -0.951057
vn 0.000000 0.000000 -1.000000
vn 0.156435 0.000000 -0.987688
vn 0.156435 0.000000 -0.987688
vn 0.000000 0.000000 -1.000000
vn -0.309017 0.000000 -0.951056
vn -0.156435 0.000000 -0.987688
vn -0.156435 0.000000 -0.987688
vn -0.309017 0.000000 -0.951056
vn -0.587785 0.000000 -0.809017
vn -0.453990 0.000000 -0.891007
vn -0.453990 0.000000 -0.891007
vn -0.587785 0.000000 -0.809017
vn -0.809017 0.000000 -0.587785
vn -0.707107 0.000000 -0.707107
vn -0.707107 0.000000 -0.707107
vn -0.809017 0.000000 -0.587785
vn -0.951057 0.000000 -0.309017
vn -0.891007 0.000000 -0.453990
vn -0.891007 0.000000 -0.453990
vn -0.951057 0.000000 -0.309017
vn -1.000000 0.000000 0.000000
vn -0.987688 0.000000 -0.156435
vn -0.987688 0.000000 -0.156435
vn -1.000000 0.000000 0.000000
vn -0.951057 0.000000 0.309017
vn -0.987688 0.000000 0.156435
vn -0.987688 0.000000 0.156435
vn -0.951057 0.000000 0.309017
vn -0.809017 0.000000 0.587785
vn -0.891006 0.000000 0.453992
vn -0.891006 0.000000 0.453992
vn -0.809017 0.000000 0.587785
vn -0.587785 0.000000 0.809017
vn -0.707107 0.000000 0.707107
vn -0.707107 0.000000 0.707107
vn -0.587785 0.000000 0.809017
vn -0.309017 0.000000 0.951057
vn -0.453992 0.000000 0.891006
vn -0.453992 0.000000 0.891006
vn -0.309017 0.000000 0.951057
vn 0.000000 0.000000 1.000000
vn -0.156435 0.000000 0.987688
vn -0.156435 0.000000 0.987688
vn 0.000000 0.000000 1.000000
vn 0.309017 0.000000 0.951057
vn 0.156435 0.000000 0.987688
vn 0.156435 0.000000 0.987688
vn 0.309017 0.000000 0.951057
vn 0.587785 0.000000 0.809017
vn 0.453992 0.000000 0.891006
vn 0.453992 0.000000 0.891006
vn 0.587785 0.000000 0.809017
vn 0.809017 0.000000 0.587785
vn 0.707107 0.000000 0.707107
vn 0.707107 0.000000 0.707107
vn 0.809017 0.000000 0.587785
vn 0.951057 0.000000 0.309017
vn 0.891006 0.000000 0.453992
vn 0.891006 0.000000 0.453992
vn 0.951057 0.000000 0.309017
vn 1.000000 0.000000 0.000001
vn 0.987688 0.000000 0.156435
vn 0.987688 0.000000 0.156435
vn 1.000000 0.000000 0.000001
vn 0.951057 0.000000 -0.309016
vn 0.987688 0.000000 -0.156435
vn 0.987688 0.000000 -0.156435
vn 0.000000 -1.000000 0.000000
vn 0.000000 -1.000000 0.000000
vn 0.000000 -1.000000 0.000000
vn 0.000000 -1.000000 0.000000
vn 0.000000 -1.000000 0.000000
vn 0.000000 -1.000000 0.000000
vn 0.000000 -1.000000 0.000000
vn 0.000000 -1.000000 0.000000
vn 0.000000 -1.000000 0.000000
vn 0.000000 -1.000000 0.000000
vn 0.000000 -1.000000 0.000000
vn 0.000000 -1.000000 0.000000
vn 0.000000 -1.000000 0.000000
vn 0.000000 -1.000000 0.000000
vn 0.000000 -1.000000 0.000000
vn 0.000000 -1.000000 0.000000
vn 0.000000 -1.000000 0.000000
vn 0.000000 -1.000000 0.000000
vn 0.000000 -1.000000 0.000000
vn 0.000000 -1.000000 0.000000
vn 0.000000 -1.000000 0.000000
vn 0.000000 -1.000000 0.000000
vn 0.000000 -1.000000 0.000000
vn 0.000000 -1.000000 0.000000
vn 0.000000 -1.000000 0.000000
vn 0.000000 -1.000000 0.000000
vn 0.000000 -1.000000 0.000000
vn 0.000000 -1.000000 0.000000
vn 0.000000 -1.000000 0.000000
vn 0.000000 -1.000000 0.000000
vn 0.000000 -1.000000 0.000000
vn 0.000000 -1.000000 0.000000
vn 0.000000 -1.000000 0.000000
vn 0.000000 -1.000000 0.000000
vn 0.000000 -1.000000 0.000000
vn 0.000000 -1.000000 0.000000
vn 0.000000 -1.000000 0.000000
vn 0.000000 -1.000000 0.000000
vn 0.000000 -1.000000 0.000000
vn 0.000000 -1.000000 0.000000
vn 0.000000 -1.000000 0.000000
vn 0.000000 -1.000000 0.000000
vn 0.000000 -1.000000 0.000000
vn 0.000000 -1.000000 0.000000
vn 0.000000 -1.000000 0.000000
vn 0.000000 -1.000000 0.000000
vn 0.000000 -1.000000 0.000000
vn 0.000000 -1.000000 0.000000
vn 0.000000 -1.000000 0.000000
vn 0.000000 -1.000000 0.000000
vn 0.000000 -1.000000 0.000000
vn 0.000000 -1.000000 0.000000
vn 0.000000 -1.000000 0.000000
vn 0.000000 -1.000000 0.000000
vn 0.000000 -1.000000 0.000000
vn 0.000000 -1.000000 0.000000
vn 0.000000 -1.000000 0.000000
vn 0.000000 -1.000000 0.000000
vn 0.000000 -1.000000 0.000000
vn 0.000000 -1.000000 0.000000
vn 0.000000 1.000000 0.000000
vn 0.000000 1.000000 0.000000
vn 0.000000 1.000000 0.000000
vn 0.000000 1.000000 0.000000
vn 0.000000 1.000000 0.000000
vn 0.000000 1.000000 0.000000
vn 0.000000 1.000000 0.000000
vn 0.000000 1.000000 0.000000
vn 0.000000 1.000000 0.000000
vn 0.000000 1.000000 0.000000
vn 0.000000 1.000000 0.000000
vn 0.000000 1.000000 0.000000
vn 0.000000 1.000000 0.000000
vn 0.000000 1.000000 0.000000
vn 0.000000 1.000000 0.000000
vn 0.000000 1.000000 0.000000
vn 0.000000 1.000000 0.000000
vn 0.000000 1.000000 0.000000
vn 0.000000 1.000000 0.000000
vn 0.000000 1.000000 0.000000
vn 0.000000 1.000000 0.000000
vn 0.000000 1.000000 0.000000
vn 0.000000 1.000000 0.000000
vn 0.000000 1.000000 0.000000
vn 0.000000 1.000000 0.000000
vn 0.000000 1.000000 0.000000
vn 0.000000 1.000000 0.000000
vn 0.000000 1.000000 0.000000
vn 0.000000 1.000000 0.000000
vn 0.000000 1.000000 0.000000
vn 0.000000 1.000000 0.000000
vn 0.000000 1.000000 0.000000
vn 0.000000 1.000000 0.000000
vn 0.000000 1.000000 0.000000
vn 0.000000 1.000000 0.000000
vn 0.000000 1.000000 0.000000
vn 0.000000 1.000000 0.000000
vn 0.000000 1.000000 0.000000
vn 0.000000 1.000000 0.000000
vn 0.000000 1.000000 0.000000
vn 0.000000 1.000000 0.000000
vn 0.000000 1.000000 0.000000
vn 0.000000 1.000000 0.000000
vn 0.000000 1.000000 0.000000
vn 0.000000 1.000000 0.000000
vn 0.000000 1.000000 0.000000
vn 0.000000 1.000000 0.000000
vn 0.000000 1.000000 0.000000
vn 0.000000 1.000000 0.000000
vn 0.000000 1.000000 0.000000
vn 0.000000 1.000000 0.000000
vn 0.000000 1.000000 0.000000
vn 0.000000 1.000000 0.000000
vn 0.000000 1.000000 0.000000
vn 0.000000 1.000000 0.000000
vn 0.000000 1.000000 0.000000
vn 0.000000 1.000000 0.000000
vn 0.000000 1.000000 0.000000
vn 0.000000 1.000000 0.000000
vn 0.000000 1.000000 0.000000
vn -0.707107 0.000000 0.707107
vn -0.707107 0.000000 0.707107
vn -0.587785 0.000000 0.809017
vn -0.809017 0.000000 0.587785
vn -0.891006 0.000000 0.453992
vn -0.891006 0.000000 0.453992
vn -0.809017 0.000000 0.587785
vn -0.951057 0.000000 0.309017
vn -0.987688 0.000000 0.156435
vn -0.987688 0.000000 0.156435
vn -0.951057 0.000000 0.309017
vn -1.000000 0.000000 0.000000
vn -0.987688 0.000000 -0.156435
vn -0.987688 0.000000 -0.156435
vn -1.000000 0.000000 0.000000
vn -0.951057 0.000000 -0.309017
vn -0.891007 0.000000 -0.453990
vn -0.891007 0.000000 -0.453990
vn -0.951057 0.000000 -0.309017
vn -0.809017 0.000000 -0.587785
vn -0.707107 0.000000 -0.707107
vn -0.707107 0.000000 -0.707107
vn -0.809017 0.000000 -0.587785
vn -0.587785 0.000000 -0.809017
vn -0.453990 0.000000 -0.891007
vn -0.453990 0.000000 -0.891007
vn -0.587785 0.000000 -0.809017
vn -0.309017 0.000000 -0.951056
vn -0.156435 0.000000 -0.987688
vn -0.156435 0.000000 -0.987688
vn -0.309017 0.000000 -0.951056
vn 0.000000 0.000000 -1.000000
vn 0.156435 0.000000 -0.987688
vn 0.156435 0.000000 -0.987688
vn 0.000000 0.000000 -1.000000
vn 0.309017 0.000000 -0.951057
vn 0.453990 0.000000 -0.891007
vn 0.453990 0.000000 -0.891007
vn 0.309017 0.000000 -0.951057
vn 0.587785 0.000000 -0.809017
vn 0.707107 0.000000 -0.707107
vn 0.707107 0.000000 -0.707107
vn 0.587785 0.000000 -0.809017
vn 0.809017 0.000000 -0.587785
vn 0.891007 0.000000 -0.453990
vn 0.891007 0.000000 -0.453990
vn 0.809017 0.000000 -0.587785
vn 0.951057 0.000000 -0.309016
vn 0.987688 0.000000 -0.156435
vn 0.987688 0.000000 -0.156435
vn 0.951057 0.000000 -0.309016
vn 1.000000 0.000000 0.000001
vn 0.987688 0.000000 0.156435
vn 0.987688 0.000000 0.156435
vn 1.000000 0.000000 0.000001
vn 0.951057 0.000000 0.309017
vn 0.891006 0.000000 0.453992
vn 0.891006 0.000000 0.453992
vn 0.951057 0.000000 0.309017
vn 0.809017 0.000000 0.587785
vn 0.707107 0.000000 0.707107
vn 0.707107 0.000000 0.707107
vn 0.809017 0.000000 0.587785
vn 0.587785 0.000000 0.809017
vn 0.453992 0.000000 0.891006
vn 0.453992 0.000000 0.891006
vn 0.587785 0.000000 0.809017
vn 0.309017 0.000000 0.951057
vn 0.156435 0.000000 0.987688
vn 0.156435 0.000000 0.987688
vn 0.309017 0.000000 0.951057
vn 0.000000 0.000000 1.000000
vn -0.156435 0.000000 0.987688
vn -0.156435 0.000000 0.987688
vn 0.000000 0.000000 1.000000
vn -0.309017 0.000000 0.951057
vn -0.453992 0.000000 0.891006
vn -0.453992 0.000000 0.891006
vn -0.309017 0.000000 0.951057
vn -0.587785 0.000000 0.809017
s off
g Man1Body:Mainbody
usemtl initialShadingGroup
f 1/1/1 2/2/2 54/3/3 55/4/4
f 2/2/5 3/5/6 53/6/7 54/3/8
f 3/7/9 4/8/10 52/9/11 53/10/12
f 4/8/13 5/11/14 51/12/15 52/9/16
f 5/11/17 6/13/18 50/14/19 51/12/20
f 6/13/21 7/15/22 49/16/23 50/14/24
f 7/17/25 8/18/26 48/19/27 49/20/28
f 8/18/29 9/21/30 47/22/31 48/19/32
f 9/21/33 10/23/34 46/24/35 47/22/36
f 10/23/37 11/25/38 45/26/39 46/24/40
f 11/25/41 12/27/42 44/28/43 45/26/44
f 12/29/45 13/30/46 43/31/47 44/32/48
f 13/33/49 14/34/50 62/35/51 43/36/52
f 14/34/53 15/37/54 61/38/55 62/35/56
f 15/37/57 16/39/58 60/40/59 61/38/60
f 16/39/61 17/41/62 59/42/63 60/40/64
f 17/43/65 18/44/66 58/45/67 59/46/68
f 18/44/69 19/47/70 57/48/71 58/45/72
f 19/47/73 20/49/74 56/50/75 57/48/76
f 20/49/77 1/1/78 55/4/79 56/50/80
f 2/51/81 1/52/82 41/53/83
f 3/54/84 2/51/85 41/53/86
f 4/55/87 3/54/88 41/53/89
f 5/56/90 4/55/91 41/53/92
f 6/57/93 5/56/94 41/53/95
f 7/58/96 6/57/97 41/53/98
f 8/59/99 7/58/100 41/53/101
f 9/60/102 8/59/103 41/53/104
f 10/61/105 9/60/106 41/53/107
f 11/62/108 10/61/109 41/53/110
f 12/63/111 11/62/112 41/53/113
f 13/64/114 12/63/115 41/53/116
f 14/65/117 13/64/118 41/53/119
f 15/66/120 14/65/121 41/53/122
f 16/67/123 15/66/124 41/53/125
f 17/68/126 16/67/127 41/53/128
f 18/69/129 17/68/130 41/53/131
f 19/70/132 18/69/133 41/53/134
f 20/71/135 19/70/136 41/53/137
f 1/52/138 20/71/139 41/53/140
f 21/72/141 22/73/142 42/74/143
f 22/73/144 23/75/145 42/74/146
f 23/75/147 24/76/148 42/74/149
f 24/76/150 25/77/151 42/74/152
f 25/77/153 26/78/154 42/74/155
f 26/78/156 27/79/157 42/74/158
f 27/79/159 28/80/160 42/74/161
f 28/80/162 29/81/163 42/74/164
f 29/81/165 30/82/166 42/74/167
f 30/82/168 31/83/169 42/74/170
f 31/83/171 32/84/172 42/74/173
f 32/84/174 33/85/175 42/74/176
f 33/85/177 34/86/178 42/74/179
f 34/86/180 35/87/181 42/74/182
f 35/87/183 36/88/184 42/74/185
f 36/88/186 37/89/187 42/74/188
f 37/89/189 38/90/190 42/74/191
f 38/90/192 39/91/193 42/74/194
f 39/91/195 40/92/196 42/74/197
f 40/92/198 21/72/199 42/74/200
f 44/93/201 43/94/202 33/95/203 32/96/204
f 45/26/205 44/28/206 32/97/207 31/98/208
f 46/24/209 45/26/210 31/98/211 30/99/212
f 47/22/213 46/24/214 30/99/215 29/100/216
f 48/19/217 47/22/218 29/100/219 28/101/220
f 49/20/221 48/19/222 28/101/223 27/102/224
f 50/14/225 49/16/226 27/103/227 26/104/228
f 51/12/229 50/14/230 26/104/231 25/105/232
f 52/9/233 51/12/234 25/105/235 24/106/236
f 53/10/237 52/9/238 24/106/239 23/107/240
f 54/3/241 53/6/242 23/108/243 22/109/244
f 55/4/245 54/3/246 22/109/247 21/110/248
f 56/50/249 55/4/250 21/110/251 40/111/252
f 57/48/253 56/50/254 40/111/255 39/112/256
f 58/45/257 57/48/258 39/112/259 38/113/260
f 59/46/261 58/45/262 38/113/263 37/114/264
f 60/115/265 59/116/266 37/117/267 36/118/268
f 61/119/269 60/115/270 36/118/271 35/120/272
f 62/121/273 61/119/274 35/120/275 34/122/276
f 43/123/277 62/121/278 34/122/279 33/124/280
