# This file uses centimeters as units for non-parametric coordinates.

mtllib Woman4LeftLeg.mtl
g default
v 0.982080 -4.792460 -0.139833
v 0.917805 -4.792460 -0.265978
v 0.817695 -4.792460 -0.366088
v 0.691551 -4.792460 -0.430362
v 0.551717 -4.792460 -0.452510
v 0.411885 -4.792460 -0.430362
v 0.285738 -4.792460 -0.366088
v 0.185630 -4.792460 -0.265978
v 0.121355 -4.792460 -0.139833
v 0.099207 -4.792460 0.000000
v 0.121355 -4.792460 0.139833
v 0.185630 -4.792460 0.265978
v 0.285738 -4.792460 0.366088
v 0.411885 -4.792460 0.430362
v 0.551717 -4.792460 0.452509
v 0.691551 -4.792460 0.430362
v 0.817695 -4.792460 0.366088
v 0.917805 -4.792460 0.265978
v 0.982079 -4.792460 0.139833
v 1.004227 -4.792460 0.000000
v 0.982080 0.490043 -0.139833
v 0.917805 0.490043 -0.265978
v 0.817695 0.490043 -0.366088
v 0.691551 0.490043 -0.430362
v 0.551717 0.490043 -0.452510
v 0.411885 0.490043 -0.430362
v 0.285738 0.490043 -0.366088
v 0.185630 0.490043 -0.265978
v 0.121355 0.490043 -0.139833
v 0.099207 0.490043 0.000000
v 0.121355 0.490043 0.139833
v 0.185630 0.490043 0.265978
v 0.285738 0.490043 0.366088
v 0.411885 0.490043 0.430362
v 0.551717 0.490043 0.452509
v 0.691551 0.490043 0.430362
v 0.817695 0.490043 0.366088
v 0.917805 0.490043 0.265978
v 0.982079 0.490043 0.139833
v 1.004227 0.490043 0.000000
v 0.551717 -4.792460 0.000000
v 0.551717 0.490043 0.000000
vt 0.591789 0.588569
vt 0.587966 0.588569
vt 0.587966 0.643200
vt 0.591789 0.643200
vt 0.584932 0.588569
vt 0.584932 0.643200
vt 0.567768 0.643200
vt 0.571591 0.643200
vt 0.571591 0.588569
vt 0.567768 0.588569
vt 0.575829 0.643200
vt 0.575829 0.588569
vt 0.580067 0.643200
vt 0.580067 0.588569
vt 0.583890 0.643200
vt 0.583890 0.588569
vt 0.566778 0.588569
vt 0.563744 0.588569
vt 0.563744 0.643200
vt 0.566778 0.643200
vt 0.559921 0.588569
vt 0.559921 0.643200
vt 0.555683 0.588569
vt 0.555683 0.643200
vt 0.551445 0.588569
vt 0.551445 0.643200
vt 0.547622 0.588569
vt 0.547622 0.643200
vt 0.544588 0.588569
vt 0.544588 0.643200
vt 0.543575 0.588569
vt 0.539752 0.588569
vt 0.539752 0.643200
vt 0.543575 0.643200
vt 0.535514 0.588569
vt 0.535514 0.643200
vt 0.531276 0.588569
vt 0.531276 0.643200
vt 0.527453 0.588569
vt 0.527453 0.643200
vt 0.607121 0.588569
vt 0.604087 0.588569
vt 0.604087 0.643200
vt 0.607121 0.643200
vt 0.600264 0.588569
vt 0.600264 0.643200
vt 0.596027 0.588569
vt 0.596027 0.643200
vt 0.585037 0.606884
vt 0.582188 0.605433
vt 0.579031 0.615150
vt 0.587297 0.609144
vt 0.588748 0.611992
vt 0.589248 0.615150
vt 0.588748 0.618307
vt 0.587297 0.621155
vt 0.585037 0.623416
vt 0.582188 0.624867
vt 0.579031 0.625367
vt 0.575874 0.624867
vt 0.573026 0.623416
vt 0.570765 0.621155
vt 0.569314 0.618307
vt 0.568814 0.615150
vt 0.569314 0.611992
vt 0.570765 0.609144
vt 0.573026 0.606884
vt 0.575874 0.605433
vt 0.579031 0.604933
vt 0.554698 0.605433
vt 0.551850 0.606884
vt 0.557855 0.615150
vt 0.549590 0.609144
vt 0.548138 0.611992
vt 0.547638 0.615150
vt 0.548138 0.618307
vt 0.549590 0.621155
vt 0.551850 0.623416
vt 0.554698 0.624867
vt 0.557855 0.625367
vt 0.561013 0.624867
vt 0.563861 0.623416
vt 0.566121 0.621155
vt 0.567572 0.618307
vt 0.568072 0.615150
vt 0.567572 0.611992
vt 0.566121 0.609144
vt 0.563861 0.606884
vt 0.561013 0.605433
vt 0.557855 0.604933
vn 0.951057 0.000000 -0.309016
vn 0.809017 0.000000 -0.587785
vn 0.809017 0.000000 -0.587785
vn 0.951057 0.000000 -0.309016
vn 0.809017 0.000000 -0.587785
vn 0.587785 0.000000 -0.809017
vn 0.587785 0.000000 -0.809017
vn 0.809017 0.000000 -0.587785
vn 0.587785 0.000000 -0.809017
vn 0.309017 0.000000 -0.951057
vn 0.309017 0.000000 -0.951057
vn 0.587785 0.000000 -0.809017
vn 0.309017 0.000000 -0.951057
vn 0.000000 0.000000 -1.000000
vn 0.000000 0.000000 -1.000000
vn 0.309017 0.000000 -0.951057
vn 0.000000 0.000000 -1.000000
vn -0.309017 0.000000 -0.951056
vn -0.309017 0.000000 -0.951056
vn 0.000000 0.000000 -1.000000
vn -0.309017 0.000000 -0.951056
vn -0.587785 0.000000 -0.809017
vn -0.587785 0.000000 -0.809017
vn -0.309017 0.000000 -0.951056
vn -0.587785 0.000000 -0.809017
vn -0.809017 0.000000 -0.587785
vn -0.809017 0.000000 -0.587785
vn -0.587785 0.000000 -0.809017
vn -0.809017 0.000000 -0.587785
vn -0.951057 0.000000 -0.309017
vn -0.951057 0.000000 -0.309017
vn -0.809017 0.000000 -0.587785
vn -0.951057 0.000000 -0.309017
vn -1.000000 0.000000 0.000000
vn -1.000000 0.000000 0.000000
vn -0.951057 0.000000 -0.309017
vn -1.000000 0.000000 0.000000
vn -0.951056 0.000000 0.309017
vn -0.951056 0.000000 0.309017
vn -1.000000 0.000000 0.000000
vn -0.951056 0.000000 0.309017
vn -0.809017 0.000000 0.587785
vn -0.809017 0.000000 0.587785
vn -0.951056 0.000000 0.309017
vn -0.809017 0.000000 0.587785
vn -0.587785 0.000000 0.809017
vn -0.587785 0.000000 0.809017
vn -0.809017 0.000000 0.587785
vn -0.587785 0.000000 0.809017
vn -0.309017 0.000000 0.951057
vn -0.309017 0.000000 0.951057
vn -0.587785 0.000000 0.809017
vn -0.309017 0.000000 0.951057
vn 0.000000 0.000000 1.000000
vn 0.000000 0.000000 1.000000
vn -0.309017 0.000000 0.951057
vn 0.000000 0.000000 1.000000
vn 0.309017 0.000000 0.951056
vn 0.309017 0.000000 0.951056
vn 0.000000 0.000000 1.000000
vn 0.309017 0.000000 0.951056
vn 0.587785 0.000000 0.809017
vn 0.587785 0.000000 0.809017
vn 0.309017 0.000000 0.951056
vn 0.587785 0.000000 0.809017
vn 0.809017 0.000000 0.587785
vn 0.809017 0.000000 0.587785
vn 0.587785 0.000000 0.809017
vn 0.809017 0.000000 0.587785
vn 0.951057 0.000000 0.309017
vn 0.951057 0.000000 0.309017
vn 0.809017 0.000000 0.587785
vn 0.951057 0.000000 0.309017
vn 1.000000 0.000000 0.000001
vn 1.000000 0.000000 0.000001
vn 0.951057 0.000000 0.309017
vn 1.000000 0.000000 0.000001
vn 0.951057 0.000000 -0.309016
vn 0.951057 0.000000 -0.309016
vn 1.000000 0.000000 0.000001
vn 0.000000 -1.000000 0.000000
vn 0.000000 -1.000000 0.000000
vn 0.000000 -1.000000 0.000000
vn 0.000000 -1.000000 0.000000
vn 0.000000 -1.000000 0.000000
vn 0.000000 -1.000000 0.000000
vn 0.000000 -1.000000 0.000000
vn 0.000000 -1.000000 0.000000
vn 0.000000 -1.000000 0.000000
vn 0.000000 -1.000000 0.000000
vn 0.000000 -1.000000 0.000000
vn 0.000000 -1.000000 0.000000
vn 0.000000 -1.000000 0.000000
vn 0.000000 -1.000000 0.000000
vn 0.000000 -1.000000 0.000000
vn 0.000000 -1.000000 0.000000
vn 0.000000 -1.000000 0.000000
vn 0.000000 -1.000000 0.000000
vn 0.000000 -1.000000 0.000000
vn 0.000000 -1.000000 0.000000
vn 0.000000 -1.000000 0.000000
vn 0.000000 -1.000000 0.000000
vn 0.000000 -1.000000 0.000000
vn 0.000000 -1.000000 0.000000
vn 0.000000 -1.000000 0.000000
vn 0.000000 -1.000000 0.000000
vn 0.000000 -1.000000 0.000000
vn 0.000000 -1.000000 0.000000
vn 0.000000 -1.000000 0.000000
vn 0.000000 -1.000000 0.000000
vn 0.000000 -1.000000 0.000000
vn 0.000000 -1.000000 0.000000
vn 0.000000 -1.000000 0.000000
vn 0.000000 -1.000000 0.000000
vn 0.000000 -1.000000 0.000000
vn 0.000000 -1.000000 0.000000
vn 0.000000 -1.000000 0.000000
vn 0.000000 -1.000000 0.000000
vn 0.000000 -1.000000 0.000000
vn 0.000000 -1.000000 0.000000
vn 0.000000 -1.000000 0.000000
vn 0.000000 -1.000000 0.000000
vn 0.000000 -1.000000 0.000000
vn 0.000000 -1.000000 0.000000
vn 0.000000 -1.000000 0.000000
vn 0.000000 -1.000000 0.000000
vn 0.000000 -1.000000 0.000000
vn 0.000000 -1.000000 0.000000
vn 0.000000 -1.000000 0.000000
vn 0.000000 -1.000000 0.000000
vn 0.000000 -1.000000 0.000000
vn 0.000000 -1.000000 0.000000
vn 0.000000 -1.000000 0.000000
vn 0.000000 -1.000000 0.000000
vn 0.000000 -1.000000 0.000000
vn 0.000000 -1.000000 0.000000
vn 0.000000 -1.000000 0.000000
vn 0.000000 -1.000000 0.000000
vn 0.000000 -1.000000 0.000000
vn 0.000000 -1.000000 0.000000
vn 0.000000 1.000000 0.000000
vn 0.000000 1.000000 0.000000
vn 0.000000 1.000000 0.000000
vn 0.000000 1.000000 0.000000
vn 0.000000 1.000000 0.000000
vn 0.000000 1.000000 0.000000
vn 0.000000 1.000000 0.000000
vn 0.000000 1.000000 0.000000
vn 0.000000 1.000000 0.000000
vn 0.000000 1.000000 0.000000
vn 0.000000 1.000000 0.000000
vn 0.000000 1.000000 0.000000
vn 0.000000 1.000000 0.000000
vn 0.000000 1.000000 0.000000
vn 0.000000 1.000000 0.000000
vn 0.000000 1.000000 0.000000
vn 0.000000 1.000000 0.000000
vn 0.000000 1.000000 0.000000
vn 0.000000 1.000000 0.000000
vn 0.000000 1.000000 0.000000
vn 0.000000 1.000000 0.000000
vn 0.000000 1.000000 0.000000
vn 0.000000 1.000000 0.000000
vn 0.000000 1.000000 0.000000
vn 0.000000 1.000000 0.000000
vn 0.000000 1.000000 0.000000
vn 0.000000 1.000000 0.000000
vn 0.000000 1.000000 0.000000
vn 0.000000 1.000000 0.000000
vn 0.000000 1.000000 0.000000
vn 0.000000 1.000000 0.000000
vn 0.000000 1.000000 0.000000
vn 0.000000 1.000000 0.000000
vn 0.000000 1.000000 0.000000
vn 0.000000 1.000000 0.000000
vn 0.000000 1.000000 0.000000
vn 0.000000 1.000000 0.000000
vn 0.000000 1.000000 0.000000
vn 0.000000 1.000000 0.000000
vn 0.000000 1.000000 0.000000
vn 0.000000 1.000000 0.000000
vn 0.000000 1.000000 0.000000
vn 0.000000 1.000000 0.000000
vn 0.000000 1.000000 0.000000
vn 0.000000 1.000000 0.000000
vn 0.000000 1.000000 0.000000
vn 0.000000 1.000000 0.000000
vn 0.000000 1.000000 0.000000
vn 0.000000 1.000000 0.000000
vn 0.000000 1.000000 0.000000
vn 0.000000 1.000000 0.000000
vn 0.000000 1.000000 0.000000
vn 0.000000 1.000000 0.000000
vn 0.000000 1.000000 0.000000
vn 0.000000 1.000000 0.000000
vn 0.000000 1.000000 0.000000
vn 0.000000 1.000000 0.000000
vn 0.000000 1.000000 0.000000
vn 0.000000 1.000000 0.000000
vn 0.000000 1.000000 0.000000
s off
g Woman4LeftLeg:Woman2LeftLegGURL2
usemtl initialShadingGroup
f 1/1/1 2/2/2 22/3/3 21/4/4
f 2/2/5 3/5/6 23/6/7 22/3/8
f 3/7/9 4/8/10 24/9/11 23/10/12
f 4/8/13 5/11/14 25/12/15 24/9/16
f 5/11/17 6/13/18 26/14/19 25/12/20
f 6/13/21 7/15/22 27/16/23 26/14/24
f 7/17/25 8/18/26 28/19/27 27/20/28
f 8/18/29 9/21/30 29/22/31 28/19/32
f 9/21/33 10/23/34 30/24/35 29/22/36
f 10/23/37 11/25/38 31/26/39 30/24/40
f 11/25/41 12/27/42 32/28/43 31/26/44
f 12/27/45 13/29/46 33/30/47 32/28/48
f 13/31/49 14/32/50 34/33/51 33/34/52
f 14/32/53 15/35/54 35/36/55 34/33/56
f 15/35/57 16/37/58 36/38/59 35/36/60
f 16/37/61 17/39/62 37/40/63 36/38/64
f 17/41/65 18/42/66 38/43/67 37/44/68
f 18/42/69 19/45/70 39/46/71 38/43/72
f 19/45/73 20/47/74 40/48/75 39/46/76
f 20/47/77 1/1/78 21/4/79 40/48/80
f 2/49/81 1/50/82 41/51/83
f 3/52/84 2/49/85 41/51/86
f 4/53/87 3/52/88 41/51/89
f 5/54/90 4/53/91 41/51/92
f 6/55/93 5/54/94 41/51/95
f 7/56/96 6/55/97 41/51/98
f 8/57/99 7/56/100 41/51/101
f 9/58/102 8/57/103 41/51/104
f 10/59/105 9/58/106 41/51/107
f 11/60/108 10/59/109 41/51/110
f 12/61/111 11/60/112 41/51/113
f 13/62/114 12/61/115 41/51/116
f 14/63/117 13/62/118 41/51/119
f 15/64/120 14/63/121 41/51/122
f 16/65/123 15/64/124 41/51/125
f 17/66/126 16/65/127 41/51/128
f 18/67/129 17/66/130 41/51/131
f 19/68/132 18/67/133 41/51/134
f 20/69/135 19/68/136 41/51/137
f 1/50/138 20/69/139 41/51/140
f 21/70/141 22/71/142 42/72/143
f 22/71/144 23/73/145 42/72/146
f 23/73/147 24/74/148 42/72/149
f 24/74/150 25/75/151 42/72/152
f 25/75/153 26/76/154 42/72/155
f 26/76/156 27/77/157 42/72/158
f 27/77/159 28/78/160 42/72/161
f 28/78/162 29/79/163 42/72/164
f 29/79/165 30/80/166 42/72/167
f 30/80/168 31/81/169 42/72/170
f 31/81/171 32/82/172 42/72/173
f 32/82/174 33/83/175 42/72/176
f 33/83/177 34/84/178 42/72/179
f 34/84/180 35/85/181 42/72/182
f 35/85/183 36/86/184 42/72/185
f 36/86/186 37/87/187 42/72/188
f 37/87/189 38/88/190 42/72/191
f 38/88/192 39/89/193 42/72/194
f 39/89/195 40/90/196 42/72/197
f 40/90/198 21/70/199 42/72/200
