# This file uses centimeters as units for non-parametric coordinates.

mtllib Woman4LeftArm.mtl
g default
v 3.355052 -3.236485 -0.125881
v 3.304271 -3.264219 -0.239439
v 3.225177 -3.307415 -0.329559
v 3.125513 -3.361846 -0.387420
v 3.015035 -3.422182 -0.407358
v 2.904557 -3.482518 -0.387420
v 2.804891 -3.536948 -0.329559
v 2.725798 -3.580143 -0.239439
v 2.675018 -3.607877 -0.125880
v 2.657520 -3.617433 0.000000
v 2.675018 -3.607877 0.125880
v 2.725798 -3.580143 0.239439
v 2.804891 -3.536948 0.329559
v 2.904557 -3.482518 0.387420
v 3.015035 -3.422182 0.407358
v 3.125513 -3.361846 0.387420
v 3.225177 -3.307415 0.329559
v 3.304270 -3.264219 0.239439
v 3.355052 -3.236487 0.125880
v 3.372550 -3.226931 0.000000
v 1.077734 0.933399 -0.125881
v 1.026953 0.905666 -0.239439
v 0.947860 0.862471 -0.329559
v 0.848196 0.808041 -0.387420
v 0.737717 0.747704 -0.407358
v 0.627240 0.687368 -0.387420
v 0.527575 0.632938 -0.329559
v 0.448480 0.589743 -0.239439
v 0.397701 0.562009 -0.125880
v 0.380203 0.552451 0.000000
v 0.397701 0.562009 0.125880
v 0.448480 0.589743 0.239439
v 0.527575 0.632938 0.329559
v 0.627240 0.687368 0.387420
v 0.737717 0.747704 0.407358
v 0.848196 0.808041 0.387420
v 0.947859 0.862471 0.329559
v 1.026953 0.905665 0.239439
v 1.077734 0.933399 0.125880
v 1.095233 0.942954 0.000000
v 3.015035 -3.422182 0.000000
v 0.737717 0.747704 0.000000
vt 0.550573 0.595623
vt 0.552102 0.595623
vt 0.552102 0.641585
vt 0.550573 0.641585
vt 0.553630 0.595623
vt 0.553630 0.641585
vt 0.555158 0.595623
vt 0.555158 0.641585
vt 0.556686 0.595623
vt 0.556686 0.641585
vt 0.558215 0.595623
vt 0.558215 0.641585
vt 0.559743 0.595623
vt 0.559743 0.641585
vt 0.561271 0.595623
vt 0.561271 0.641585
vt 0.562799 0.595623
vt 0.562799 0.641585
vt 0.564328 0.595623
vt 0.564328 0.641585
vt 0.565856 0.595623
vt 0.565856 0.641585
vt 0.567384 0.595623
vt 0.567384 0.641585
vt 0.568912 0.595623
vt 0.568912 0.641585
vt 0.570440 0.595623
vt 0.570440 0.641585
vt 0.571969 0.595623
vt 0.571969 0.641585
vt 0.573497 0.595623
vt 0.573497 0.641585
vt 0.575025 0.595623
vt 0.575025 0.641585
vt 0.576553 0.595623
vt 0.576553 0.641585
vt 0.578082 0.595623
vt 0.578082 0.641585
vt 0.579610 0.595623
vt 0.579610 0.641585
vt 0.581138 0.595623
vt 0.581138 0.641585
vt 0.578379 0.604269
vt 0.580124 0.607693
vt 0.568440 0.610998
vt 0.575661 0.601551
vt 0.572236 0.599806
vt 0.568440 0.599205
vt 0.564643 0.599806
vt 0.561219 0.601551
vt 0.558501 0.604269
vt 0.556756 0.607693
vt 0.556154 0.611490
vt 0.556756 0.615286
vt 0.558501 0.618711
vt 0.561219 0.621429
vt 0.564643 0.623174
vt 0.568440 0.623775
vt 0.572236 0.623174
vt 0.575661 0.621429
vt 0.578379 0.618711
vt 0.580124 0.615286
vt 0.580725 0.611490
vt 0.578379 0.604269
vt 0.580124 0.607693
vt 0.568042 0.611201
vt 0.580725 0.611490
vt 0.580124 0.615286
vt 0.578379 0.618711
vt 0.575661 0.621429
vt 0.572236 0.623174
vt 0.568440 0.623775
vt 0.564643 0.623174
vt 0.561219 0.621429
vt 0.558501 0.618711
vt 0.556756 0.615286
vt 0.556154 0.611490
vt 0.556756 0.607694
vt 0.558501 0.604269
vt 0.561218 0.601551
vt 0.564643 0.599806
vt 0.568439 0.599205
vt 0.572236 0.599806
vt 0.575661 0.601551
vn 0.834690 0.455853 -0.309016
vn 0.710029 0.387771 -0.587785
vn 0.710029 0.387771 -0.587785
vn 0.834690 0.455853 -0.309016
vn 0.710029 0.387771 -0.587785
vn 0.515867 0.281732 -0.809017
vn 0.515867 0.281732 -0.809017
vn 0.710029 0.387771 -0.587785
vn 0.515867 0.281732 -0.809017
vn 0.271207 0.148115 -0.951057
vn 0.271207 0.148115 -0.951057
vn 0.515867 0.281732 -0.809017
vn 0.271207 0.148115 -0.951057
vn 0.000000 0.000000 -1.000000
vn 0.000000 0.000000 -1.000000
vn 0.271207 0.148115 -0.951057
vn 0.000000 0.000000 -1.000000
vn -0.271207 -0.148116 -0.951056
vn -0.271207 -0.148116 -0.951056
vn 0.000000 0.000000 -1.000000
vn -0.271207 -0.148116 -0.951056
vn -0.515867 -0.281733 -0.809017
vn -0.515867 -0.281733 -0.809017
vn -0.271207 -0.148116 -0.951056
vn -0.515867 -0.281733 -0.809017
vn -0.710030 -0.387771 -0.587785
vn -0.710030 -0.387771 -0.587785
vn -0.515867 -0.281733 -0.809017
vn -0.710030 -0.387771 -0.587785
vn -0.834690 -0.455853 -0.309017
vn -0.834690 -0.455853 -0.309017
vn -0.710030 -0.387771 -0.587785
vn -0.834690 -0.455853 -0.309017
vn -0.877645 -0.479312 0.000000
vn -0.877645 -0.479312 0.000000
vn -0.834690 -0.455853 -0.309017
vn -0.877645 -0.479312 0.000000
vn -0.834690 -0.455853 0.309017
vn -0.834690 -0.455853 0.309017
vn -0.877645 -0.479312 0.000000
vn -0.834690 -0.455853 0.309017
vn -0.710029 -0.387771 0.587785
vn -0.710029 -0.387771 0.587785
vn -0.834690 -0.455853 0.309017
vn -0.710029 -0.387771 0.587785
vn -0.515867 -0.281732 0.809017
vn -0.515867 -0.281732 0.809017
vn -0.710029 -0.387771 0.587785
vn -0.515867 -0.281732 0.809017
vn -0.271207 -0.148115 0.951057
vn -0.271207 -0.148115 0.951057
vn -0.515867 -0.281732 0.809017
vn -0.271207 -0.148115 0.951057
vn 0.000000 0.000000 1.000000
vn 0.000000 0.000000 1.000000
vn -0.271207 -0.148115 0.951057
vn 0.000000 0.000000 1.000000
vn 0.271207 0.148116 0.951057
vn 0.271207 0.148116 0.951057
vn 0.000000 0.000000 1.000000
vn 0.271207 0.148116 0.951057
vn 0.515867 0.281732 0.809017
vn 0.515867 0.281732 0.809017
vn 0.271207 0.148116 0.951057
vn 0.515867 0.281732 0.809017
vn 0.710029 0.387771 0.587785
vn 0.710029 0.387771 0.587785
vn 0.515867 0.281732 0.809017
vn 0.710029 0.387771 0.587785
vn 0.834690 0.455853 0.309017
vn 0.834690 0.455853 0.309017
vn 0.710029 0.387771 0.587785
vn 0.834690 0.455853 0.309017
vn 0.877645 0.479312 0.000001
vn 0.877645 0.479312 0.000001
vn 0.834690 0.455853 0.309017
vn 0.877645 0.479312 0.000001
vn 0.834690 0.455853 -0.309016
vn 0.834690 0.455853 -0.309016
vn 0.877645 0.479312 0.000001
vn 0.479312 -0.877645 0.000000
vn 0.479312 -0.877645 0.000000
vn 0.479312 -0.877645 0.000000
vn 0.479312 -0.877645 0.000000
vn 0.479312 -0.877645 0.000000
vn 0.479312 -0.877645 0.000000
vn 0.479312 -0.877645 0.000000
vn 0.479312 -0.877645 0.000000
vn 0.479312 -0.877645 0.000000
vn 0.479312 -0.877645 0.000000
vn 0.479312 -0.877645 0.000000
vn 0.479312 -0.877645 0.000000
vn 0.479312 -0.877645 0.000000
vn 0.479312 -0.877645 0.000000
vn 0.479312 -0.877645 0.000000
vn 0.479312 -0.877645 0.000000
vn 0.479312 -0.877645 0.000000
vn 0.479312 -0.877645 0.000000
vn 0.479312 -0.877645 0.000000
vn 0.479312 -0.877645 0.000000
vn 0.479312 -0.877645 0.000000
vn 0.479312 -0.877645 0.000000
vn 0.479312 -0.877645 0.000000
vn 0.479312 -0.877645 0.000000
vn 0.479312 -0.877645 0.000000
vn 0.479312 -0.877645 0.000000
vn 0.479312 -0.877645 0.000000
vn 0.479312 -0.877645 0.000000
vn 0.479312 -0.877645 0.000000
vn 0.479312 -0.877645 0.000000
vn 0.479312 -0.877645 0.000000
vn 0.479312 -0.877645 0.000000
vn 0.479312 -0.877645 0.000000
vn 0.479312 -0.877645 0.000000
vn 0.479312 -0.877645 0.000000
vn 0.479312 -0.877645 0.000000
vn 0.479312 -0.877645 0.000000
vn 0.479312 -0.877645 0.000000
vn 0.479312 -0.877645 0.000000
vn 0.479312 -0.877645 0.000000
vn 0.479312 -0.877645 0.000000
vn 0.479312 -0.877645 0.000000
vn 0.479312 -0.877645 0.000000
vn 0.479312 -0.877645 0.000000
vn 0.479312 -0.877645 0.000000
vn 0.479312 -0.877645 0.000000
vn 0.479312 -0.877645 0.000000
vn 0.479312 -0.877645 0.000000
vn 0.479312 -0.877645 0.000000
vn 0.479312 -0.877645 0.000000
vn 0.479312 -0.877645 0.000000
vn 0.479312 -0.877645 0.000000
vn 0.479312 -0.877645 0.000000
vn 0.479312 -0.877645 0.000000
vn 0.479312 -0.877645 0.000000
vn 0.479312 -0.877645 0.000000
vn 0.479312 -0.877645 0.000000
vn 0.479312 -0.877645 0.000000
vn 0.479312 -0.877645 0.000000
vn 0.479312 -0.877645 0.000000
vn -0.479312 0.877645 0.000000
vn -0.479312 0.877645 0.000000
vn -0.479312 0.877645 0.000000
vn -0.479312 0.877645 0.000000
vn -0.479312 0.877645 0.000000
vn -0.479312 0.877645 0.000000
vn -0.479312 0.877645 0.000000
vn -0.479312 0.877645 0.000000
vn -0.479312 0.877645 0.000000
vn -0.479312 0.877645 0.000000
vn -0.479312 0.877645 0.000000
vn -0.479312 0.877645 0.000000
vn -0.479312 0.877645 0.000000
vn -0.479312 0.877645 0.000000
vn -0.479312 0.877645 0.000000
vn -0.479312 0.877645 0.000000
vn -0.479312 0.877645 0.000000
vn -0.479312 0.877645 0.000000
vn -0.479312 0.877645 0.000000
vn -0.479312 0.877645 0.000000
vn -0.479312 0.877645 0.000000
vn -0.479312 0.877645 0.000000
vn -0.479312 0.877645 0.000000
vn -0.479312 0.877645 0.000000
vn -0.479312 0.877645 0.000000
vn -0.479312 0.877645 0.000000
vn -0.479312 0.877645 0.000000
vn -0.479312 0.877645 0.000000
vn -0.479312 0.877645 0.000000
vn -0.479312 0.877645 0.000000
vn -0.479312 0.877645 0.000000
vn -0.479312 0.877645 0.000000
vn -0.479312 0.877645 0.000000
vn -0.479312 0.877645 0.000000
vn -0.479312 0.877645 0.000000
vn -0.479312 0.877645 0.000000
vn -0.479312 0.877645 0.000000
vn -0.479312 0.877645 0.000000
vn -0.479312 0.877645 0.000000
vn -0.479312 0.877645 0.000000
vn -0.479312 0.877645 0.000000
vn -0.479312 0.877645 0.000000
vn -0.479312 0.877645 0.000000
vn -0.479312 0.877645 0.000000
vn -0.479312 0.877645 0.000000
vn -0.479312 0.877645 0.000000
vn -0.479312 0.877645 0.000000
vn -0.479312 0.877645 0.000000
vn -0.479312 0.877645 0.000000
vn -0.479312 0.877645 0.000000
vn -0.479312 0.877645 0.000000
vn -0.479312 0.877645 0.000000
vn -0.479312 0.877645 0.000000
vn -0.479312 0.877645 0.000000
vn -0.479312 0.877645 0.000000
vn -0.479312 0.877645 0.000000
vn -0.479312 0.877645 0.000000
vn -0.479312 0.877645 0.000000
vn -0.479312 0.877645 0.000000
vn -0.479312 0.877645 0.000000
s off
g Woman4LeftArm:Woman2LeftArmGURL2
usemtl initialShadingGroup
f 1/1/1 2/2/2 22/3/3 21/4/4
f 2/2/5 3/5/6 23/6/7 22/3/8
f 3/5/9 4/7/10 24/8/11 23/6/12
f 4/7/13 5/9/14 25/10/15 24/8/16
f 5/9/17 6/11/18 26/12/19 25/10/20
f 6/11/21 7/13/22 27/14/23 26/12/24
f 7/13/25 8/15/26 28/16/27 27/14/28
f 8/15/29 9/17/30 29/18/31 28/16/32
f 9/17/33 10/19/34 30/20/35 29/18/36
f 10/19/37 11/21/38 31/22/39 30/20/40
f 11/21/41 12/23/42 32/24/43 31/22/44
f 12/23/45 13/25/46 33/26/47 32/24/48
f 13/25/49 14/27/50 34/28/51 33/26/52
f 14/27/53 15/29/54 35/30/55 34/28/56
f 15/29/57 16/31/58 36/32/59 35/30/60
f 16/31/61 17/33/62 37/34/63 36/32/64
f 17/33/65 18/35/66 38/36/67 37/34/68
f 18/35/69 19/37/70 39/38/71 38/36/72
f 19/37/73 20/39/74 40/40/75 39/38/76
f 20/39/77 1/41/78 21/42/79 40/40/80
f 2/43/81 1/44/82 41/45/83
f 3/46/84 2/43/85 41/45/86
f 4/47/87 3/46/88 41/45/89
f 5/48/90 4/47/91 41/45/92
f 6/49/93 5/48/94 41/45/95
f 7/50/96 6/49/97 41/45/98
f 8/51/99 7/50/100 41/45/101
f 9/52/102 8/51/103 41/45/104
f 10/53/105 9/52/106 41/45/107
f 11/54/108 10/53/109 41/45/110
f 12/55/111 11/54/112 41/45/113
f 13/56/114 12/55/115 41/45/116
f 14/57/117 13/56/118 41/45/119
f 15/58/120 14/57/121 41/45/122
f 16/59/123 15/58/124 41/45/125
f 17/60/126 16/59/127 41/45/128
f 18/61/129 17/60/130 41/45/131
f 19/62/132 18/61/133 41/45/134
f 20/63/135 19/62/136 41/45/137
f 1/44/138 20/63/139 41/45/140
f 21/64/141 22/65/142 42/66/143
f 22/65/144 23/67/145 42/66/146
f 23/67/147 24/68/148 42/66/149
f 24/68/150 25/69/151 42/66/152
f 25/69/153 26/70/154 42/66/155
f 26/70/156 27/71/157 42/66/158
f 27/71/159 28/72/160 42/66/161
f 28/72/162 29/73/163 42/66/164
f 29/73/165 30/74/166 42/66/167
f 30/74/168 31/75/169 42/66/170
f 31/75/171 32/76/172 42/66/173
f 32/76/174 33/77/175 42/66/176
f 33/77/177 34/78/178 42/66/179
f 34/78/180 35/79/181 42/66/182
f 35/79/183 36/80/184 42/66/185
f 36/80/186 37/81/187 42/66/188
f 37/81/189 38/82/190 42/66/191
f 38/82/192 39/83/193 42/66/194
f 39/83/195 40/84/196 42/66/197
f 40/84/198 21/64/199 42/66/200
