# This file uses centimeters as units for non-parametric coordinates.

v -1.216315 23.323088 12.919830
v 1.216315 23.323088 12.919830
v -1.216315 24.507483 12.919830
v 1.216315 24.507483 12.919830
v -1.216315 24.507483 -1.990819
v 1.216315 24.507483 -1.990819
v -1.216315 23.323088 -1.990819
v 1.216315 23.323088 -1.990819
v 0.654276 5.104702 -0.212587
v 0.556560 5.104702 -0.404365
v 0.404365 5.104702 -0.556560
v 0.212587 5.104702 -0.654276
v 0.000000 5.104702 -0.687946
v -0.212587 5.104702 -0.654276
v -0.404365 5.104702 -0.556560
v -0.556560 5.104702 -0.404365
v -0.654276 5.104702 -0.212587
v -0.687946 5.104702 0.000000
v -0.654276 5.104702 0.212587
v -0.556560 5.104702 0.404365
v -0.404365 5.104702 0.556560
v -0.212587 5.104702 0.654276
v -0.000000 5.104702 0.687946
v 0.212587 5.104702 0.654276
v 0.404365 5.104702 0.556560
v 0.556560 5.104702 0.404365
v 0.654276 5.104702 0.212587
v 0.687946 5.104702 0.000000
v 0.654276 23.302469 -0.212587
v 0.556560 23.302469 -0.404365
v 0.404365 23.302469 -0.556560
v 0.212587 23.302469 -0.654276
v 0.000000 23.302469 -0.687946
v -0.212587 23.302469 -0.654276
v -0.404365 23.302469 -0.556560
v -0.556560 23.302469 -0.404365
v -0.654276 23.302469 -0.212587
v -0.687946 23.302469 0.000000
v -0.654276 23.302469 0.212587
v -0.556560 23.302469 0.404365
v -0.404365 23.302469 0.556560
v -0.212587 23.302469 0.654276
v -0.000000 23.302469 0.687946
v 0.212587 23.302469 0.654276
v 0.404365 23.302469 0.556560
v 0.556560 23.302469 0.404365
v 0.654276 23.302469 0.212587
v 0.687946 23.302469 0.000000
v 0.798306 0.114969 -2.456932
v -2.089991 0.114969 -1.518467
v -2.089991 0.114969 1.518467
v 0.798305 0.114969 2.456932
v 2.583371 0.114969 0.000000
v 0.798306 5.281710 -2.456932
v -2.089991 5.281710 -1.518467
v -2.089991 5.281710 1.518467
v 0.798305 5.281710 2.456932
v 2.583371 5.281710 0.000000
v 0.000000 0.114969 0.000000
v 0.000000 5.281710 0.000000
vt 0.341661 0.718990
vt 0.341661 0.001992
vt 0.398614 0.001992
vt 0.398614 0.718990
vt 0.405729 0.718990
vt 0.405729 0.001992
vt 0.462683 0.001992
vt 0.462683 0.718990
vt 0.038970 0.001992
vt 0.048192 0.001992
vt 0.048192 0.877056
vt 0.038970 0.877056
vt 0.055510 0.001992
vt 0.055510 0.877056
vt 0.028747 0.001992
vt 0.028747 0.877056
vt 0.018525 0.001992
vt 0.018525 0.877056
vt 0.009303 0.001992
vt 0.009303 0.877056
vt 0.001984 0.001992
vt 0.001984 0.877056
vt 0.116278 0.001992
vt 0.125500 0.001992
vt 0.125500 0.877056
vt 0.116278 0.877056
vt 0.135722 0.001992
vt 0.135722 0.877056
vt 0.108959 0.001992
vt 0.108959 0.877056
vt 0.145945 0.001992
vt 0.145945 0.877056
vt 0.155167 0.001992
vt 0.155167 0.877056
vt 0.162485 0.001992
vt 0.162485 0.877056
vt 0.829122 0.207255
vt 0.975157 0.207255
vt 0.975157 0.455705
vt 0.829122 0.455705
vt 0.215740 0.001992
vt 0.332717 0.001992
vt 0.332717 0.718990
vt 0.215740 0.718990
vt 0.541439 0.001378
vt 0.658416 0.001378
vt 0.658416 0.718376
vt 0.541439 0.718376
vt 0.772388 0.768094
vt 0.911275 0.722966
vt 0.872887 0.841111
vt 0.997112 0.841111
vt 0.772388 0.914129
vt 0.911275 0.959256
vt 0.911360 0.959256
vt 0.772472 0.914129
vt 0.872972 0.841111
vt 0.772472 0.768094
vt 0.997197 0.841111
vt 0.911360 0.722966
vt 0.405096 0.841185
vt 0.405096 0.724209
vt 0.462049 0.724209
vt 0.462049 0.841185
vt 0.341661 0.841238
vt 0.341661 0.724261
vt 0.398614 0.724261
vt 0.398614 0.841238
vt 0.101253 0.877056
vt 0.092031 0.877056
vt 0.092031 0.001992
vt 0.101253 0.001992
vt 0.081809 0.877056
vt 0.081809 0.001992
vt 0.071586 0.877056
vt 0.071586 0.001992
vt 0.062364 0.877056
vt 0.062364 0.001992
vt 0.169145 0.001992
vt 0.178367 0.001992
vt 0.178367 0.877056
vt 0.169145 0.877056
vt 0.188589 0.001992
vt 0.188589 0.877056
vt 0.198812 0.001992
vt 0.198812 0.877056
vt 0.208034 0.001992
vt 0.208034 0.877056
vt 0.885221 0.712284
vt 0.746333 0.712284
vt 0.746333 0.463834
vt 0.885221 0.463834
vt 0.971058 0.712284
vt 0.971058 0.463834
vt 0.746645 0.462532
vt 0.885533 0.462532
vt 0.885533 0.710981
vt 0.746645 0.710981
vt 0.971370 0.462532
vt 0.971370 0.710981
vn 0.000000 0.000000 1.000000
vn 0.000000 0.000000 1.000000
vn 0.000000 0.000000 1.000000
vn 0.000000 0.000000 1.000000
vn 0.000000 1.000000 0.000000
vn 0.000000 1.000000 0.000000
vn 0.000000 1.000000 0.000000
vn 0.000000 1.000000 0.000000
vn 0.000000 0.000000 -1.000000
vn 0.000000 0.000000 -1.000000
vn 0.000000 0.000000 -1.000000
vn 0.000000 0.000000 -1.000000
vn 0.000000 -1.000000 0.000000
vn 0.000000 -1.000000 0.000000
vn 0.000000 -1.000000 0.000000
vn 0.000000 -1.000000 0.000000
vn 1.000000 0.000000 0.000000
vn 1.000000 0.000000 0.000000
vn 1.000000 0.000000 0.000000
vn 1.000000 0.000000 0.000000
vn -1.000000 0.000000 0.000000
vn -1.000000 0.000000 0.000000
vn -1.000000 0.000000 0.000000
vn -1.000000 0.000000 0.000000
vn 0.951057 0.000000 -0.309016
vn 0.809017 0.000000 -0.587785
vn 0.809017 0.000000 -0.587785
vn 0.951057 0.000000 -0.309016
vn 0.587785 0.000000 -0.809017
vn 0.587785 0.000000 -0.809017
vn 0.309017 0.000000 -0.951057
vn 0.309017 0.000000 -0.951057
vn -0.000000 0.000000 -1.000000
vn -0.000000 0.000000 -1.000000
vn -0.309017 0.000000 -0.951056
vn -0.309017 0.000000 -0.951056
vn -0.587785 0.000000 -0.809017
vn -0.587785 0.000000 -0.809017
vn -0.809017 0.000000 -0.587785
vn -0.809017 0.000000 -0.587785
vn -0.951057 0.000000 -0.309017
vn -0.951057 0.000000 -0.309017
vn -1.000000 0.000000 0.000000
vn -1.000000 0.000000 0.000000
vn -0.951057 0.000000 0.309017
vn -0.951057 0.000000 0.309017
vn -0.809017 0.000000 0.587785
vn -0.809017 0.000000 0.587785
vn -0.587785 0.000000 0.809017
vn -0.587785 0.000000 0.809017
vn -0.309017 0.000000 0.951057
vn -0.309017 0.000000 0.951057
vn 0.000000 0.000000 1.000000
vn 0.000000 0.000000 1.000000
vn 0.309017 0.000000 0.951057
vn 0.309017 0.000000 0.951057
vn 0.587785 0.000000 0.809017
vn 0.587785 0.000000 0.809017
vn 0.809017 0.000000 0.587785
vn 0.809017 0.000000 0.587785
vn 0.951057 0.000000 0.309017
vn 0.951057 0.000000 0.309017
vn 1.000000 0.000000 0.000001
vn 1.000000 0.000000 0.000001
vn -0.309017 0.000000 -0.951057
vn -0.309017 0.000000 -0.951057
vn -0.309017 0.000000 -0.951057
vn -0.309017 0.000000 -0.951057
vn -1.000000 0.000000 0.000000
vn -1.000000 0.000000 0.000000
vn -1.000000 0.000000 0.000000
vn -1.000000 0.000000 0.000000
vn -0.309017 0.000000 0.951057
vn -0.309017 0.000000 0.951057
vn -0.309017 0.000000 0.951057
vn -0.309017 0.000000 0.951057
vn 0.809017 0.000000 0.587785
vn 0.809017 0.000000 0.587785
vn 0.809017 0.000000 0.587785
vn 0.809017 0.000000 0.587785
vn 0.809017 0.000000 -0.587785
vn 0.809017 0.000000 -0.587785
vn 0.809017 0.000000 -0.587785
vn 0.809017 0.000000 -0.587785
vn 0.000000 -1.000000 0.000000
vn 0.000000 -1.000000 -0.000000
vn 0.000000 -1.000000 0.000000
vn 0.000000 -1.000000 0.000000
vn 0.000000 -1.000000 0.000000
vn 0.000000 -1.000000 0.000000
vn 0.000000 1.000000 0.000000
vn 0.000000 1.000000 0.000000
vn 0.000000 1.000000 0.000000
vn 0.000000 1.000000 0.000000
vn 0.000000 1.000000 0.000000
vn 0.000000 1.000000 0.000000
f 1/61/1 2/62/2 4/63/3 3/64/4
f 3/41/5 4/42/6 6/43/7 5/44/8
f 5/65/9 6/66/10 8/67/11 7/68/12
f 7/45/13 8/46/14 2/47/15 1/48/16
f 2/1/17 8/2/18 6/3/19 4/4/20
f 7/5/21 1/6/22 3/7/23 5/8/24
f 9/9/25 10/10/26 30/11/27 29/12/28
f 10/10/26 11/13/29 31/14/30 30/11/27
f 11/69/29 12/70/31 32/71/32 31/72/30
f 12/70/31 13/73/33 33/74/34 32/71/32
f 13/73/33 14/75/35 34/76/36 33/74/34
f 14/75/35 15/77/37 35/78/38 34/76/36
f 15/29/37 16/23/39 36/26/40 35/30/38
f 16/23/39 17/24/41 37/25/42 36/26/40
f 17/24/41 18/27/43 38/28/44 37/25/42
f 18/27/43 19/31/45 39/32/46 38/28/44
f 19/31/45 20/33/47 40/34/48 39/32/46
f 20/33/47 21/35/49 41/36/50 40/34/48
f 21/79/49 22/80/51 42/81/52 41/82/50
f 22/80/51 23/83/53 43/84/54 42/81/52
f 23/83/53 24/85/55 44/86/56 43/84/54
f 24/85/55 25/87/57 45/88/58 44/86/56
f 25/21/57 26/19/59 46/20/60 45/22/58
f 26/19/59 27/17/61 47/18/62 46/20/60
f 27/17/61 28/15/63 48/16/64 47/18/62
f 28/15/63 9/9/25 29/12/28 48/16/64
f 49/89/65 50/90/66 55/91/67 54/92/68
f 50/37/69 51/38/70 56/39/71 55/40/72
f 51/95/73 52/96/74 57/97/75 56/98/76
f 52/96/77 53/99/78 58/100/79 57/97/80
f 53/93/81 49/89/82 54/92/83 58/94/84
f 50/49/85 49/50/86 59/51/87
f 51/53/88 50/49/85 59/51/87
f 52/54/89 51/53/88 59/51/87
f 53/52/90 52/54/89 59/51/87
f 49/50/86 53/52/90 59/51/87
f 54/55/91 55/56/92 60/57/93
f 55/56/92 56/58/94 60/57/93
f 56/58/94 57/60/95 60/57/93
f 57/60/95 58/59/96 60/57/93
f 58/59/96 54/55/91 60/57/93
