# This file uses centimeters as units for non-parametric coordinates.

mtllib track_inneredge.mtl
g default
v 31.915955 -0.352427 3.910430
v 31.915955 -0.352427 -3.910430
v 31.915955 4.981710 1.423870
v 31.915955 4.981710 -1.423870
v -31.915955 4.981710 1.423870
v -31.915955 4.981710 -1.423870
v -31.915955 -0.352427 3.910430
v -31.915955 -0.352427 -3.910430
vt 0.881608 0.030069
vt 0.881616 0.079787
vt 0.792696 0.045890
vt 0.792699 0.063993
vt 0.002091 0.150386
vt 0.002089 0.297721
vt 0.998107 0.151620
vt 0.998104 0.298955
vt 0.656580 0.069251
vt 0.656583 0.087355
vt 0.567664 0.053458
vt 0.567672 0.103175
vt 0.998108 0.314917
vt 0.998116 0.461232
vt 0.002093 0.315363
vt 0.002100 0.461678
vt 0.002101 0.503851
vt 0.998117 0.503618
vt 0.002115 0.640221
vt 0.998130 0.639988
vt 0.998145 0.725276
vt 0.002129 0.725057
vt 0.998131 0.853768
vt 0.002116 0.853549
vn 1.000000 0.000000 0.000000
vn 1.000000 0.000000 0.000000
vn 1.000000 0.000000 0.000000
vn 1.000000 0.000000 0.000000
vn 1.000000 0.000000 0.000000
vn 1.000000 0.000000 0.000000
vn 0.000000 1.000000 0.000000
vn 0.000000 1.000000 0.000000
vn 0.000000 1.000000 0.000000
vn 0.000000 1.000000 0.000000
vn 0.000000 1.000000 0.000000
vn 0.000000 1.000000 0.000000
vn -1.000000 0.000000 -0.000000
vn -1.000000 0.000000 -0.000000
vn -1.000000 0.000000 -0.000000
vn -1.000000 0.000000 -0.000000
vn -1.000000 0.000000 -0.000000
vn -1.000000 0.000000 -0.000000
vn 0.000000 -1.000000 0.000000
vn 0.000000 -1.000000 0.000000
vn 0.000000 -1.000000 0.000000
vn 0.000000 -1.000000 0.000000
vn 0.000000 -1.000000 0.000000
vn 0.000000 -1.000000 0.000000
vn 0.000000 0.422509 -0.906359
vn 0.000000 0.422509 -0.906359
vn 0.000000 0.422509 -0.906359
vn 0.000000 0.422509 -0.906359
vn 0.000000 0.422509 -0.906359
vn 0.000000 0.422509 -0.906359
vn 0.000000 0.422509 0.906359
vn 0.000000 0.422509 0.906359
vn 0.000000 0.422509 0.906359
vn 0.000000 0.422509 0.906359
vn 0.000000 0.422509 0.906359
vn 0.000000 0.422509 0.906359
s off
g track_inneredge2:Mesh
usemtl initialShadingGroup
f 1/1/1 2/2/2 3/3/3
f 3/3/4 2/2/5 4/4/6
f 3/5/7 4/6/8 5/7/9
f 5/7/10 4/6/11 6/8/12
f 5/9/13 6/10/14 7/11/15
f 7/11/16 6/10/17 8/12/18
f 7/13/19 8/14/20 1/15/21
f 1/15/22 8/14/23 2/16/24
f 2/17/25 8/18/26 4/19/27
f 4/19/28 8/18/29 6/20/30
f 7/21/31 1/22/32 5/23/33
f 5/23/34 1/22/35 3/24/36
