# This file uses centimeters as units for non-parametric coordinates.

mtllib track_outeredge.mtl
g default
v 48.177991 -0.352427 7.225706
v 48.177991 -0.352427 -7.225706
v 48.274015 4.981710 2.631032
v 48.177991 4.981710 -2.631032
v -48.274015 4.981710 2.631032
v -48.177991 4.981710 -2.631032
v -48.177991 -0.352427 7.225706
v -48.177991 -0.352427 -7.225706
vt 0.716199 0.025916
vt 0.716877 0.124396
vt 0.540297 0.058440
vt 0.540544 0.094299
vt 0.982511 0.145349
vt 0.983878 0.343800
vt 0.002939 0.152098
vt 0.004306 0.350550
vt 0.765397 0.078560
vt 0.765841 0.045287
vt 0.928429 0.109794
vt 0.929649 0.018415
vt 0.985437 0.559993
vt 0.986816 0.760179
vt 0.005865 0.566742
vt 0.007244 0.766928
vt 0.985335 0.359972
vt 0.005763 0.353222
vt 0.983985 0.556010
vt 0.004413 0.549261
vt 0.001264 0.771776
vt 0.980836 0.765027
vt 0.002625 0.969373
vt 0.982197 0.962624
vn 1.000000 0.000000 0.000000
vn 1.000000 0.000000 0.000000
vn 1.000000 0.000000 0.000000
vn 1.000000 0.000000 0.000000
vn 1.000000 0.000000 0.000000
vn 1.000000 0.000000 0.000000
vn 0.000000 1.000000 0.000000
vn 0.000000 1.000000 0.000000
vn 0.000000 1.000000 0.000000
vn 0.000000 1.000000 0.000000
vn 0.000000 1.000000 0.000000
vn 0.000000 1.000000 0.000000
vn -1.000000 0.000000 -0.000000
vn -1.000000 0.000000 -0.000000
vn -1.000000 0.000000 -0.000000
vn -1.000000 0.000000 -0.000000
vn -1.000000 0.000000 -0.000000
vn -1.000000 0.000000 -0.000000
vn 0.000000 -1.000000 0.000000
vn 0.000000 -1.000000 0.000000
vn 0.000000 -1.000000 0.000000
vn 0.000000 -1.000000 0.000000
vn 0.000000 -1.000000 0.000000
vn 0.000000 -1.000000 0.000000
vn 0.000000 0.652637 -0.757670
vn 0.000000 0.652637 -0.757670
vn 0.000000 0.652637 -0.757670
vn 0.000000 0.652637 -0.757670
vn 0.000000 0.652637 -0.757670
vn 0.000000 0.652637 -0.757670
vn 0.000000 0.652637 0.757670
vn 0.000000 0.652637 0.757670
vn 0.000000 0.652637 0.757670
vn 0.000000 0.652637 0.757670
vn 0.000000 0.652637 0.757670
vn 0.000000 0.652637 0.757670
s off
g track_outeredge1:Mesh
usemtl initialShadingGroup
f 1/1/1 2/2/2 3/3/3
f 3/3/4 2/2/5 4/4/6
f 3/5/7 4/6/8 5/7/9
f 5/7/10 4/6/11 6/8/12
f 5/9/13 6/10/14 7/11/15
f 7/11/16 6/10/17 8/12/18
f 7/13/19 8/14/20 1/15/21
f 1/15/22 8/14/23 2/16/24
f 2/17/25 8/18/26 4/19/27
f 4/19/28 8/18/29 6/20/30
f 7/21/31 1/22/32 5/23/33
f 5/23/34 1/22/35 3/24/36
