# This file uses centimeters as units for non-parametric coordinates.

v -3.910430 -0.352427 29.876633
v 3.910430 -0.352427 29.876633
v -1.423870 4.981710 29.876633
v 1.423870 4.981710 29.876633
v -1.423870 4.981710 -29.876633
v 1.423870 4.981710 -29.876633
v -3.910430 -0.352427 -29.876633
v 3.910430 -0.352427 -29.876633
vt 0.002101 0.503851
vt 0.998117 0.503618
vt 0.998130 0.639988
vt 0.002115 0.640221
vt 0.998145 0.725276
vt 0.002129 0.725057
vt 0.002116 0.853549
vt 0.998131 0.853768
vt 0.002091 0.150386
vt 0.002089 0.297721
vt 0.998104 0.298955
vt 0.998107 0.151620
vt 0.998108 0.314917
vt 0.998116 0.461232
vt 0.002100 0.461678
vt 0.002093 0.315363
vt 0.881608 0.030069
vt 0.881616 0.079787
vt 0.792699 0.063993
vt 0.792696 0.045890
vt 0.656580 0.069251
vt 0.656583 0.087355
vt 0.567672 0.103175
vt 0.567664 0.053458
vn 0.000000 0.000000 1.000000
vn 0.000000 0.000000 1.000000
vn 0.000000 0.000000 1.000000
vn 0.000000 0.000000 1.000000
vn 0.000000 1.000000 0.000000
vn 0.000000 1.000000 0.000000
vn 0.000000 1.000000 0.000000
vn 0.000000 1.000000 0.000000
vn 0.000000 0.000000 -1.000000
vn 0.000000 0.000000 -1.000000
vn 0.000000 0.000000 -1.000000
vn 0.000000 0.000000 -1.000000
vn 0.000000 -1.000000 0.000000
vn 0.000000 -1.000000 0.000000
vn 0.000000 -1.000000 0.000000
vn 0.000000 -1.000000 0.000000
vn 0.906359 0.422509 0.000000
vn 0.906359 0.422509 0.000000
vn 0.906359 0.422509 0.000000
vn 0.906359 0.422509 0.000000
vn -0.906359 0.422509 0.000000
vn -0.906359 0.422509 0.000000
vn -0.906359 0.422509 0.000000
vn -0.906359 0.422509 0.000000
f 1/17/1 2/18/2 3/20/3
f 3/20/3 2/18/2 4/19/4
f 3/9/5 4/10/6 5/12/7
f 5/12/7 4/10/6 6/11/8
f 5/21/9 6/22/10 7/24/11
f 7/24/11 6/22/10 8/23/12
f 7/13/13 8/14/14 1/16/15
f 1/16/15 8/14/14 2/15/16
f 2/1/17 8/2/18 4/4/19
f 4/4/19 8/2/18 6/3/20
f 7/5/21 1/6/22 5/8/23
f 5/8/23 1/6/22 3/7/24
